<svg width="80" height="80" viewBox="0 0 80 80" fill="none" xmlns="http://www.w3.org/2000/svg">
<circle cx="40" cy="40" r="40" fill="#EEEEEE" fill-opacity="0.933333"/>
<mask id="mask0_136_4164" style="mask-type:alpha" maskUnits="userSpaceOnUse" x="0" y="0" width="80" height="80">
<circle cx="40" cy="40" r="40" fill="#FACCD0"/>
</mask>
<g mask="url(#mask0_136_4164)">
<g clip-path="url(#clip0_136_4164)">
<path d="M52.5836 26.8992C52.5836 26.8992 51.209 21.3686 46.9145 21.2194C42.62 21.0702 41.5864 16.5147 41.5864 16.5147H24.984C24.984 16.5147 14.3011 25.3487 13.6084 33.3409C12.9158 41.3331 13.5392 104.961 13.5392 104.961C13.5392 104.961 13.1769 108.958 18.1587 108.963H49.0617C49.0617 108.963 52.7061 108.121 52.5356 105.1C52.3651 102.079 52.5836 26.8992 52.5836 26.8992ZM47.7883 47.9133C47.7883 49.4158 46.403 49.7142 44.698 49.7142H44.6074C42.9024 49.7142 41.5171 49.4105 41.5171 47.908V29.1636C41.5171 27.6611 42.9024 26.6647 44.6127 26.6647H44.698C46.403 26.6647 47.7883 27.6664 47.7883 29.169V47.9133Z" fill="white"/>
<path d="M41.5389 11.0053H24.9629V16.5147H41.5389V11.0053Z" fill="#A7000D"/>
<path d="M34.8414 11H24.9576V16.5094H34.8414V11Z" fill="#E10012"/>
<path d="M53.1225 63.2741H13.001V86.324H53.1225V63.2741Z" fill="#F1959D"/>
<path d="M66.0216 45.5049H44.3784C43.0303 45.5049 41.7143 47.6362 41.7143 48.169V88.3597C41.7143 89.079 43.4619 91.2528 44.3784 91.2528H66.0216C66.7728 91.2528 68.6857 88.9298 68.6857 88.3597V48.1956C68.6857 47.5243 67.588 45.5049 66.0216 45.5049Z" fill="white"/>
<path d="M55.1997 91.2795H66.0213C66.7726 91.2795 68.6854 88.9565 68.6854 88.3863V48.1956C68.6854 47.5243 67.5878 45.5315 66.0213 45.5315H55.1997V91.2795Z" fill="white"/>
<path d="M68.6856 48.6218H41.7142V88.0559H68.6856V48.6218Z" fill="#E10012"/>
<path d="M68.6854 48.6218H55.1997V88.0559H68.6854V48.6218Z" fill="#A7000D"/>
<path d="M67.0072 43.997H43.6057C43.3497 43.997 43.1422 44.2045 43.1422 44.4606V45.2918C43.1422 45.5478 43.3497 45.7553 43.6057 45.7553H67.0072C67.2632 45.7553 67.4708 45.5478 67.4708 45.2918V44.4606C67.4708 44.2045 67.2632 43.997 67.0072 43.997Z" fill="#E10012"/>
<path d="M55.1997 45.7553H66.5381C66.778 45.7611 67.0104 45.672 67.185 45.5074C67.3596 45.3428 67.4622 45.116 67.4706 44.8762C67.4622 44.6364 67.3596 44.4096 67.185 44.245C67.0104 44.0803 66.778 43.9913 66.5381 43.997H55.1997V45.7553Z" fill="#A7000D"/>
<path d="M23.4123 47.0503L22.1282 45.7396C22.1915 45.7081 22.2505 45.6687 22.304 45.6224L26.103 41.8287C26.152 41.7871 26.1906 41.7345 26.2156 41.6753C26.2406 41.6161 26.2513 41.5518 26.2469 41.4877C26.2469 40.9815 26.2469 40.47 26.2469 39.9372H26.0178C25.5756 39.9372 25.1333 39.9372 24.6963 39.9372C24.6286 39.9329 24.5608 39.9442 24.498 39.97C24.4353 39.9959 24.3792 40.0356 24.3341 40.0863L20.5404 43.8854L20.4018 44.0133L19.1391 42.7824L21.9736 39.9478H18.3292V38.1895H21.9524L19.1284 35.3709L20.4232 34.1294C20.4232 34.1294 20.4924 34.1934 20.551 34.252C21.8121 35.513 23.0766 36.7775 24.3447 38.0457C24.3876 38.0931 24.4403 38.1306 24.4992 38.1555C24.5581 38.1803 24.6218 38.1919 24.6857 38.1895C25.2186 38.1895 25.7034 38.1895 26.2309 38.1895C26.2309 38.1042 26.2309 38.0297 26.2309 37.9604C26.2309 37.5128 26.2309 37.0653 26.2309 36.6177C26.2233 36.4993 26.1764 36.3867 26.0977 36.298L22.304 32.499C22.2507 32.451 22.1815 32.4084 22.1388 32.3764L23.3856 31.103L26.1829 33.9003H26.2255V30.3037H27.9839V33.8843L30.7865 31.0817L32.06 32.3764C32.0168 32.4272 31.9706 32.4753 31.9214 32.5203L28.1384 36.298C28.0876 36.3433 28.0475 36.3993 28.0208 36.4619C27.994 36.5245 27.9814 36.5923 27.9839 36.6603C27.9839 37.1931 27.9839 37.6727 27.9839 38.2108C28.2183 38.2108 28.4368 38.2108 28.6552 38.2108C29.0102 38.2597 29.371 38.2453 29.7209 38.1682C30.0246 38.0456 30.2537 37.6993 30.4934 37.4436L33.6638 34.2786C33.7099 34.2239 33.7509 34.165 33.7863 34.1028L35.0758 35.3709L32.2304 38.2055H35.9123V39.9585H32.305L35.1344 42.7877L33.8076 44.0825C33.7807 44.0207 33.7448 43.9633 33.701 43.912C32.4436 42.6492 31.1808 41.3918 29.9234 40.1236C29.8746 40.0681 29.8136 40.0248 29.7451 39.997C29.6767 39.9693 29.6027 39.9579 29.5291 39.9638C29.0975 39.9638 28.6605 39.9638 28.229 39.9638H27.9999V40.3368C27.9999 40.795 27.9999 41.2479 27.9999 41.7008C28.3142 42.0258 28.6286 42.3508 28.9536 42.6705C29.9446 43.6687 30.9375 44.6615 31.9321 45.649C31.986 45.6938 32.0429 45.7348 32.1026 45.7716L30.8185 47.0823L27.9892 44.2317V47.8655H26.2415V44.2104L23.4123 47.0503Z" fill="#F1959D"/>
</g>
</g>
<defs>
<clipPath id="clip0_136_4164">
<rect width="55.6841" height="98" fill="white" transform="translate(13.001 11)"/>
</clipPath>
</defs>
</svg>
