<svg width="80" height="81" viewBox="0 0 80 81" fill="none" xmlns="http://www.w3.org/2000/svg">
<circle cx="40" cy="40.24" r="40" fill="#EEEEEE" fill-opacity="0.933333"/>
<mask id="mask0_173_1221" style="mask-type:alpha" maskUnits="userSpaceOnUse" x="0" y="0" width="80" height="81">
<circle cx="40" cy="40.24" r="40" fill="#FACCD0"/>
</mask>
<g mask="url(#mask0_173_1221)">
<path d="M50.9193 71.5446C45.9626 71.5446 41.0453 71.1492 36.3453 69.4491C35.7884 69.2514 35.3066 68.8798 34.7142 68.777C34.3508 68.4646 33.9677 68.1681 33.6241 67.832C33.4285 67.6516 33.2722 67.4329 33.1648 67.1893C33.0574 66.9458 33.0013 66.6827 33 66.4165C33 56.7507 33.0079 47.0849 33.0237 37.4191C33.3239 37.3835 33.3594 37.6484 33.4779 37.8144C34.1524 38.748 35.0946 39.4541 36.1794 39.8388C38.3586 40.6024 40.6075 41.1493 42.8937 41.4717C42.9593 41.4847 43.0239 41.5018 43.0872 41.5231C43.3052 41.5862 43.5319 41.6142 43.7586 41.6062C43.9063 41.6151 44.053 41.6362 44.1971 41.6694C44.4537 41.7436 44.7238 41.7584 44.987 41.7129C45.1438 41.7127 45.2996 41.7367 45.4491 41.7841C45.7742 41.8888 46.1226 41.897 46.4523 41.8078C46.6971 41.8045 46.9408 41.8392 47.175 41.9106C47.7183 42.0667 48.2945 42.0667 48.8378 41.9106C49.5577 41.8155 50.2897 41.9194 50.9548 42.2111C51.0198 42.268 51.07 42.3399 51.1009 42.4207C51.2162 42.7571 51.2579 43.1144 51.2233 43.4684C51.2233 52.412 51.2233 61.3556 51.2233 70.2992C51.2194 70.7341 51.3379 71.2125 50.9193 71.5446Z" fill="#F5C7CB"/>
<path d="M80 37.3005V51.6331C80 51.898 80 52.1629 80 52.4239C79.898 52.5415 79.7671 52.6307 79.6204 52.6827C79.4736 52.7346 79.3159 52.7477 79.1627 52.7204C75.9846 52.7362 72.8065 52.7362 69.6284 52.7204C69.3387 52.7386 69.0504 52.6668 68.8029 52.5148C68.7034 52.3955 68.6309 52.2558 68.5907 52.1056C68.5505 51.9554 68.5434 51.7982 68.57 51.645C68.5542 47.4697 68.5542 43.2932 68.57 39.1153C68.6391 38.6579 68.6391 38.1928 68.57 37.7354C68.5708 37.5504 68.6414 37.3725 68.7674 37.2372C69.0202 37.0237 69.265 37.1305 69.5099 37.2372L78.831 37.2609C79.2101 37.2847 79.6051 37.2925 80 37.3005Z" fill="#F5C7CB"/>
<path d="M68.8464 37.2688V37.6998C68.7714 38.5736 68.2539 39.1074 67.543 39.5621C66.3005 40.2846 64.9575 40.8176 63.558 41.1436C61.0835 41.8148 58.5461 42.2268 55.9866 42.3732C54.6042 42.4721 53.2218 42.5472 51.8316 42.6144C51.6685 42.649 51.4993 42.6409 51.3402 42.5911C51.1811 42.5412 51.0375 42.4512 50.9232 42.3297V42.306C50.8523 42.2543 50.7927 42.1888 50.7479 42.1134C50.7031 42.0379 50.6741 41.9541 50.6625 41.8671C50.6388 40.9815 50.5125 40.0879 50.7613 39.2102C51.0101 38.8148 51.4327 38.8543 51.8197 38.8345C53.2777 38.8076 54.7235 38.5624 56.109 38.1071C56.5435 37.9529 57.0964 37.8342 57.1122 37.2846C57.128 36.7351 56.5672 36.6046 56.1367 36.4464C54.754 35.984 53.309 35.7346 51.8514 35.7071C51.4564 35.7071 51.0417 35.7545 50.7731 35.3552C50.5046 34.4497 50.631 33.5325 50.6784 32.6152C50.6922 32.5395 50.7214 32.4674 50.7642 32.4035C50.807 32.3395 50.8624 32.2851 50.9271 32.2435C55.9273 32.1961 60.8604 32.6152 65.6038 34.3548C66.8993 34.8293 68.092 35.4856 68.8464 36.7271C68.8833 36.7619 68.9128 36.8039 68.9329 36.8505C68.953 36.897 68.9635 36.9473 68.9635 36.998C68.9635 37.0488 68.953 37.0989 68.9329 37.1455C68.9128 37.1921 68.8833 37.2341 68.8464 37.2688Z" fill="#F5C7CB"/>
<path d="M50.9113 39.1588C50.9113 40.2145 50.9113 41.2662 50.9113 42.3219C50.1965 42.3495 49.4973 42.1163 48.7825 42.2112C48.2203 42.306 47.6463 42.306 47.0841 42.2112L46.389 42.0807C46.0498 42.1696 45.6935 42.1696 45.3543 42.0807L44.9277 41.9541C44.679 42.0451 44.4062 42.0451 44.1575 41.9541L43.727 41.8316C43.5258 41.9144 43.3002 41.9144 43.0991 41.8316C42.1433 41.6774 41.1756 41.5825 40.2396 41.3532C38.9006 41.0714 37.5813 40.703 36.29 40.25C35.2986 39.8765 34.3921 39.3078 33.624 38.5776C33.3379 38.2483 33.1287 37.8593 33.0118 37.4389C32.9447 36.6481 33.3831 36.146 33.9282 35.6992C35.1683 34.6791 36.6652 34.173 38.1779 33.7618C42.3332 32.6863 46.6164 32.1874 50.9074 32.2791C50.9074 33.3269 50.9074 34.3786 50.9074 35.4422C50.9074 35.4738 50.8797 35.5054 50.8639 35.541C50.1569 35.9364 49.3591 35.7506 48.6087 35.8692C47.4949 36.0471 46.3732 36.1736 45.3424 36.66C45.0699 36.7944 44.746 36.9328 44.746 37.3005C44.746 37.6682 45.0699 37.8105 45.3424 37.9449C46.351 38.4077 47.4377 38.676 48.5455 38.7357C49.1583 38.8234 49.7753 38.8776 50.3939 38.8978C50.4828 38.8922 50.5717 38.9071 50.6539 38.9414C50.7361 38.9757 50.8093 39.0284 50.8678 39.0955L50.9113 39.1588Z" fill="#FEFEFE"/>
<path d="M50.9232 42.3416C55.1215 42.2269 59.3081 41.9976 63.3841 40.8629C64.7217 40.5543 66.0099 40.0606 67.2113 39.396C67.9086 39.0057 68.4726 38.4148 68.8306 37.6998C68.8306 42.6078 68.8372 47.5172 68.8503 52.4278C68.9621 52.5349 69.0467 52.6673 69.0969 52.8138C69.1471 52.9604 69.1613 53.1168 69.1386 53.27C69.1544 57.5402 69.1544 61.809 69.1386 66.0765C69.1617 66.2298 69.1468 66.3865 69.0951 66.5326C69.0435 66.6788 68.9567 66.81 68.8424 66.9147C68.4584 67.7434 67.7919 68.4079 66.9624 68.7888C65.1189 69.7262 63.1397 70.368 61.0973 70.6906C57.7453 71.3422 54.3328 71.6286 50.9193 71.5447C50.9193 61.8103 50.9205 52.0759 50.9232 42.3416Z" fill="#F1959D"/>
<path d="M68.8424 66.9147C68.8424 62.0857 68.8424 57.2568 68.8424 52.4278H79.9643C79.9643 57.121 79.9644 61.8142 79.992 66.5074C79.992 67.0452 79.6602 66.9028 79.3798 66.9028L68.8424 66.9147Z" fill="#F5C7CB"/>
<path d="M47.0881 42.2072H48.7864C48.2375 42.4049 47.637 42.4049 47.0881 42.2072Z" fill="#C2D7FE"/>
<path d="M45.3583 42.0727H46.3969C46.239 42.164 46.0599 42.2121 45.8776 42.2121C45.6953 42.2121 45.5162 42.164 45.3583 42.0727Z" fill="#C5D9FE"/>
<path d="M44.1615 41.9383H44.9316C44.8207 42.0221 44.6856 42.0673 44.5466 42.0673C44.4077 42.0673 44.2725 42.0221 44.1615 41.9383Z" fill="#C3D8FE"/>
<path d="M43.1031 41.8078H43.731C43.6443 41.8846 43.5327 41.9269 43.417 41.9269C43.3014 41.9269 43.1897 41.8846 43.1031 41.8078Z" fill="#C5D9FE"/>
<path d="M50.9113 35.4026C52.6979 35.3508 54.4804 35.6008 56.184 36.142C56.7764 36.3515 57.5348 36.5374 57.5111 37.3281C57.5111 38.0596 56.7566 38.2336 56.184 38.4352C54.4801 38.9752 52.6977 39.2238 50.9113 39.1706C50.469 38.5657 50.469 36.059 50.9113 35.454V35.4026Z" fill="#F1959D"/>
<path d="M50.9232 35.4224V39.139C49.3529 39.1727 47.7854 38.9945 46.2627 38.6092C45.7446 38.4905 45.2521 38.2788 44.8092 37.9845C44.1325 37.5153 44.1325 37.0474 44.8092 36.5809C45.565 36.1127 46.4146 35.817 47.2975 35.715C48.4923 35.4891 49.7076 35.391 50.9232 35.4224Z" fill="#F5C7CB"/>
</g>
<path d="M38.5394 18.6985H9.90476L14.074 57.5902C14.2178 58.8745 14.8232 60.0627 15.7776 60.934C16.732 61.8052 17.9705 62.3 19.2625 62.3263H29.5196C30.8218 62.335 32.0794 61.8522 33.0412 60.9743C34.003 60.0963 34.5982 58.8878 34.708 57.5902L38.8773 18.6985H38.5394Z" fill="white"/>
<path d="M24.4455 45.4147C27.5578 45.4147 30.0809 41.0226 30.0809 35.6046C30.0809 30.1866 27.5578 25.7945 24.4455 25.7945C21.3332 25.7945 18.8101 30.1866 18.8101 35.6046C18.8101 41.0226 21.3332 45.4147 24.4455 45.4147Z" fill="#E10012"/>
<path d="M30.0809 62.4408V69.0899C30.0846 69.3278 30.0404 69.564 29.9511 69.7846C29.8617 70.0051 29.729 70.2054 29.5608 70.3737C29.3925 70.5419 29.1922 70.6746 28.9716 70.764C28.7511 70.8534 28.5149 70.8975 28.2769 70.8939H20.6141C20.3764 70.8968 20.1405 70.8521 19.9204 70.7625C19.7002 70.6728 19.5001 70.5401 19.332 70.372C19.1639 70.2039 19.0311 70.0039 18.9415 69.7837C18.8519 69.5635 18.8073 69.3276 18.8102 69.0899V62.4408H30.0809Z" fill="#E10012"/>
<path d="M40 10.24L38.9863 18.8075L38.5394 18.693H10.3516L9.90471 18.8075L9 10.24H40Z" fill="#E10012"/>
<path d="M24.4455 38.4277C24.0589 38.4207 23.69 38.2641 23.4166 37.9906C23.1431 37.7172 22.9865 37.3483 22.9795 36.9617V34.144C22.9795 33.7552 23.1339 33.3823 23.4088 33.1073C23.6838 32.8324 24.0567 32.6779 24.4455 32.6779C24.8343 32.6779 25.2072 32.8324 25.4822 33.1073C25.7571 33.3823 25.9116 33.7552 25.9116 34.144V36.9617C25.9177 37.1559 25.8838 37.3492 25.8123 37.5298C25.7407 37.7104 25.633 37.8744 25.4957 38.0118C25.3583 38.1492 25.1942 38.2569 25.0136 38.3285C24.833 38.4 24.6397 38.4338 24.4455 38.4277Z" fill="white"/>
<path d="M25.9116 37.0762H23.0939C22.7051 37.0762 22.3322 36.9217 22.0572 36.6468C21.7823 36.3718 21.6278 35.9989 21.6278 35.6101C21.6278 35.2213 21.7823 34.8483 22.0572 34.5734C22.3322 34.2985 22.7051 34.144 23.0939 34.144H25.9116C26.2982 34.151 26.667 34.3077 26.9405 34.5812C27.2139 34.8546 27.3706 35.2235 27.3776 35.6101C27.3336 35.9837 27.165 36.3316 26.899 36.5976C26.633 36.8636 26.2852 37.0322 25.9116 37.0762Z" fill="white"/>
</svg>
