<svg width="80" height="81" viewBox="0 0 80 81" fill="none" xmlns="http://www.w3.org/2000/svg">
<circle cx="40" cy="40.24" r="40" fill="#EEEEEE" fill-opacity="0.933333"/>
<mask id="mask0_173_1152" style="mask-type:alpha" maskUnits="userSpaceOnUse" x="0" y="0" width="80" height="81">
<circle cx="40" cy="40.24" r="40" fill="#FACCD0"/>
</mask>
<g mask="url(#mask0_173_1152)">
<path d="M63.0315 75.3934L12.8936 81.2418L9.47843 51.9641L6.10052 23.0057L56.2384 17.1572L63.0315 75.3934Z" fill="#E10012"/>
<path d="M10.3491 59.4287C10.3491 59.4287 21.0881 68.3851 35.8831 65.1148C51.4629 61.6793 59.6158 46.1109 59.6158 46.1109L62.7081 72.6214L12.5702 78.4699L10.3491 59.4287Z" fill="white"/>
<path d="M52.0501 42.646C49.2468 37.8181 44.0288 39.7652 40.3483 43.7845C39.1686 45.0752 37.8479 46.7531 34.48 47.3656C32.8462 47.6592 30.7522 47.3749 28.3464 47.4908C22.309 47.79 20.43 49.9998 21.2509 52.5467C22.2526 55.6972 30.2878 59.1117 39.4612 57.4514C52.9957 55.0077 53.7216 45.5124 52.0501 42.646Z" fill="white"/>
<path d="M36.8902 38.1707C36.5873 34.2908 32.8037 33.9257 29.3488 35.3282C27.9082 36.0845 26.2327 36.2453 24.6739 35.777C23.583 35.4631 22.388 34.665 20.8611 33.9953C17.0665 32.37 15.2467 33.1544 14.9931 35.0037C14.6797 37.2736 18.5939 41.8489 24.7287 43.5941C33.763 46.1729 37.0486 40.4613 36.8902 38.1707Z" fill="white"/>
<path d="M56.2384 17.1572L6.10051 23.0056L4 18.4501L57.234 12.2406L56.2384 17.1572Z" fill="#F1959D"/>
<path d="M12.8936 81.2418L63.0314 75.3934L65.132 79.949L11.8979 86.1585L12.8936 81.2418Z" fill="#F1959D"/>
<path d="M10.6719 62.1958C10.6719 62.1958 21.4109 71.1523 36.2064 67.8867C51.7857 64.4464 59.9357 48.8538 59.9357 48.8538L63.0286 75.3692L12.8908 81.2176L10.6719 62.1958Z" fill="#F1959D"/>
<g style="mix-blend-mode:screen" opacity="0.35">
<path d="M13.9001 51.4483L10.5222 22.4899L8.6974 17.9022L4 18.4501L6.10535 23.0051L9.48326 51.9635L12.8984 81.2413L11.898 86.1585L16.5954 85.6106L17.3152 80.7261L13.9001 51.4483Z" fill="#FFF7F8"/>
</g>
<g style="mix-blend-mode:multiply" opacity="0.3">
<path d="M56.2432 17.1567L57.2388 12.24L52.5511 12.7868L51.8312 17.6713L58.6243 75.9075L60.449 80.4952L65.1368 79.9484L63.0363 75.3929L56.2432 17.1567Z" fill="#580900"/>
</g>
<path d="M67.7022 78.4616L38.4543 71.1991L42.6951 54.1199L46.8898 37.227L76.1377 44.4895L67.7022 78.4616Z" fill="#F1959D"/>
<path d="M67.7022 78.4616L38.4543 71.1991L40.5754 62.6567L42.672 54.2131L71.92 61.4755L67.7022 78.4616Z" fill="#E10012"/>
<path d="M38.4543 71.1991L67.7022 78.4616L67.9193 81.4486L36.8652 73.7377L38.4543 71.1991Z" fill="#F5C7CB"/>
<g style="mix-blend-mode:screen" opacity="0.35">
<path d="M45.2773 54.7611L49.472 37.8682L49.4073 34.919L46.6727 34.24L46.8926 37.2277L42.698 54.1207L38.4571 71.1998L36.8652 73.7377L39.5998 74.4167L41.0365 71.8403L45.2773 54.7611Z" fill="#FBEBB9"/>
</g>
<g style="mix-blend-mode:multiply" opacity="0.35">
<path d="M76.1405 44.4902L77.7296 41.9516L74.995 41.2726L73.564 43.8504L65.1285 77.8225L65.1875 80.7703L67.9221 81.4493L67.705 78.4623L76.1405 44.4902Z" fill="#E10012"/>
</g>
<path d="M66.97 60.2464C66.4948 62.1605 65.4626 63.8906 64.004 65.2179C62.5454 66.5453 60.7259 67.4103 58.7757 67.7035C56.8255 67.9967 54.8321 67.7051 53.0476 66.8653C51.2632 66.0256 49.7679 64.6755 48.7508 62.9859C47.7336 61.2963 47.2404 59.3429 47.3335 57.373C47.4266 55.403 48.1018 53.5049 49.2737 51.9187C50.4456 50.3325 52.0616 49.1295 53.9172 48.4618C55.7729 47.794 57.7849 47.6916 59.6988 48.1674C60.9695 48.4829 62.1655 49.0457 63.2186 49.8235C64.2718 50.6013 65.1614 51.579 65.8366 52.7007C66.5118 53.8224 66.9594 55.0661 67.1539 56.3608C67.3484 57.6555 67.2859 58.9759 66.97 60.2464Z" fill="white"/>
<path d="M51.6931 59.5384C50.9563 59.2505 50.8297 58.2614 51.4703 57.7972L58.2676 52.8714C58.8859 52.4234 59.7579 52.8056 59.8475 53.5639L60.7864 61.5122C60.875 62.262 60.1326 62.8357 59.4294 62.561L51.6931 59.5384Z" fill="#E10012"/>
<path fill-rule="evenodd" clip-rule="evenodd" d="M46.8898 37.227L46.6727 34.24L59.0898 37.3232L65.5806 38.9349L77.7268 41.9509L76.1349 44.4888L46.8898 37.227Z" fill="white"/>
</g>
</svg>
