<svg width="80" height="81" viewBox="0 0 80 81" fill="none" xmlns="http://www.w3.org/2000/svg">
<circle cx="40" cy="40.24" r="40" fill="#EEEEEE" fill-opacity="0.933333"/>
<mask id="mask0_173_1288" style="mask-type:alpha" maskUnits="userSpaceOnUse" x="0" y="0" width="80" height="81">
<circle cx="40" cy="40.24" r="40" fill="#FACCD0"/>
</mask>
<g mask="url(#mask0_173_1288)">
<path fill-rule="evenodd" clip-rule="evenodd" d="M32.4214 40.2846C33.3226 40.2602 34.1971 40.5931 34.8531 41.2105C35.5091 41.8279 35.8929 42.6793 35.9205 43.578L35.9282 81.0706C35.8977 81.9691 35.5127 82.819 34.857 83.4355C34.2013 84.0521 33.3278 84.3854 32.4264 84.3631C31.5249 84.3861 30.6505 84.0527 29.994 83.4356C29.3374 82.8184 28.952 81.9677 28.9218 81.0689L28.9149 43.5708C28.9456 42.6721 29.3315 41.8222 29.9884 41.2066C30.6453 40.591 31.5199 40.2596 32.4214 40.2846Z" fill="#F5C7CB"/>
<path fill-rule="evenodd" clip-rule="evenodd" d="M32.374 9.77205C42.2991 9.7762 50.4132 17.4212 50.4238 26.7563L50.4303 57.9494C50.4261 60.9999 47.7738 63.4921 44.5109 63.4882L20.2359 63.4691C16.9786 63.4661 14.3094 60.9569 14.305 57.8883L14.299 26.7289C14.3224 17.3934 22.4442 9.76156 32.374 9.77205Z" fill="#E10012"/>
<path fill-rule="evenodd" clip-rule="evenodd" d="M22.4591 24.4789C22.494 23.47 22.9289 22.5164 23.6682 21.8272C24.4075 21.1381 25.3909 20.7697 26.4029 20.8029C27.4109 20.7779 28.3883 21.1509 29.1225 21.8408C29.8567 22.5306 30.2881 23.4815 30.3229 24.4865L30.3246 53.4722C30.2897 54.4818 29.855 55.4361 29.1156 56.1261C28.3763 56.8161 27.3926 57.1856 26.38 57.1537C25.3717 57.177 24.3945 56.8027 23.6607 56.1119C22.9268 55.4212 22.4957 54.4699 22.4609 53.4647" fill="#BE1E20"/>
<path fill-rule="evenodd" clip-rule="evenodd" d="M42.6077 53.4897C42.5767 54.4955 42.1471 55.4476 41.413 56.1375C40.6789 56.8273 39.7003 57.1986 38.6916 57.1699C37.6832 57.1964 36.7049 56.8239 35.9704 56.1337C35.2359 55.4435 34.8049 54.4917 34.7715 53.4863L34.7697 24.5006C34.8032 23.4905 35.2375 22.5353 35.9772 21.845C36.7168 21.1547 37.7013 20.7857 38.7143 20.8191C39.7231 20.7943 40.7012 21.1682 41.4353 21.8592C42.1695 22.5502 42.6002 23.5024 42.6336 24.5081" fill="#BE1E20"/>
<path fill-rule="evenodd" clip-rule="evenodd" d="M69.4766 53.2496L60.2127 83.0624C58.8537 87.4352 52.559 89.1482 51.2495 82.6121L45.1348 52.0336L69.4766 53.2496Z" fill="#F1959D"/>
<path fill-rule="evenodd" clip-rule="evenodd" d="M61.8597 52.8722L63.8429 52.9699L66.2864 55.6818L69.009 53.2394L69.5049 53.2638L68.7769 55.6068L67.3801 56.8631L68.1297 57.6946L67.5756 59.4765L66.1889 57.9404L62.5941 61.1795L65.8328 64.7548L65.9728 64.6267L65.044 67.6275L62.1193 70.2595L63.6886 71.9933L63.1346 73.7751L60.9281 71.3369L61.0467 69.0713L64.6363 65.8339L61.3958 62.2533L61.5198 59.986L65.1093 56.7487L61.8706 53.1733L61.8878 52.8864L61.8597 52.8722ZM60.5438 78.1371L62.2118 76.6333L60.8815 80.9147L60.4268 80.408L60.5438 78.1371ZM59.5663 53.0465L59.8747 52.7693L61.8597 52.8722L61.8424 53.1592L59.4476 55.3121L59.5663 53.0465ZM60.8787 71.3296L58.4804 73.4896L58.5973 71.2187L59.7991 70.1379L58.7195 68.9461L58.8382 66.6805L60.9974 69.0641L60.8787 71.3296ZM58.3634 75.7605L60.5226 78.1441L60.4057 80.4149L58.0056 82.5696L58.1242 80.304L59.3261 79.2232L58.2448 78.0261L58.3634 75.7605ZM57.8904 84.8457L58.582 85.6085C58.3434 85.8206 58.0888 86.0141 57.8203 86.1871L57.8904 84.8457ZM61.4651 59.9805L61.3411 62.2479L58.9481 64.4061L59.0668 62.1405L60.2686 61.0596L59.1872 59.8626L59.306 57.597L61.4598 59.9823L61.4651 59.9805ZM57.1468 55.2134L59.5398 53.0552L59.4211 55.3208L58.2246 56.3999L59.306 57.597L59.1872 59.8626L57.0281 57.479L57.1468 55.2134ZM58.4591 73.4966L57.2626 74.5757L58.3422 75.7675L58.2236 78.0331L56.0644 75.6495L56.1831 73.3839L58.5761 71.2257L58.4591 73.4966ZM57.9843 82.5766L56.7879 83.6557L57.8692 84.8527L57.7991 86.1941C57.6089 86.3157 57.4116 86.4256 57.2081 86.5233L55.5844 84.7136L55.7031 82.448L58.0961 80.2898L57.9774 82.5554L57.9843 82.5766ZM59.0898 62.1212L58.9712 64.3868L57.7746 65.4659L58.8559 66.663L58.7373 68.9286L56.5781 66.545L56.695 64.2741L59.0898 62.1212ZM53.3542 84.5976L54.5824 83.5256L53.5028 82.3339L53.6198 80.063L55.7754 82.4536L55.6567 84.7191L53.6803 86.5001C53.5449 86.4309 53.4159 86.3498 53.295 86.2577L53.3806 84.6065L53.3542 84.5976ZM53.8289 75.5176L55.0308 74.4368L53.9495 73.2397L54.0682 70.9741L56.222 73.3594L56.1033 75.625L53.7103 77.7832L53.8289 75.5176ZM55.016 52.8089L57.1698 55.1942L57.0512 57.4597L54.6581 59.618L54.775 57.3471L55.9769 56.2662L54.892 55.0762L55.016 52.8089ZM56.695 64.2741L56.5781 66.545L54.1833 68.6979L54.302 66.4324L55.5038 65.3515L54.4242 64.1597L54.5412 61.8888L56.695 64.2741ZM52.4342 85.4275L53.3383 84.6028L53.2526 86.254C52.9292 86.0255 52.641 85.7512 52.3971 85.4397L52.4342 85.4275ZM53.4765 82.325L51.3172 79.9414L51.4342 77.6705L53.8289 75.5176L53.7103 77.7832L52.5138 78.8623L53.5934 80.0541L53.4765 82.325ZM53.9495 73.2397L51.7903 70.8562L51.909 68.5906L54.302 66.4324L54.1833 68.6979L52.9868 69.7771L54.0682 70.9741L53.9495 73.2397ZM52.7501 52.4057L54.7386 52.5017L55.016 52.8089L54.892 55.0762L52.7381 52.6909L52.7501 52.4057ZM54.775 57.3471L54.6581 59.618L53.4616 60.6971L54.5412 61.8888L54.4242 64.1597L52.2633 61.7709L52.382 59.5053L54.775 57.3471ZM51.3172 79.9414L50.8085 80.3959L49.9475 75.9916L51.4519 77.653L51.335 79.9239L51.3172 79.9414ZM51.7903 70.8562L49.3423 73.0618L48.9753 71.2313L50.7108 69.6644L48.0793 66.7565L47.4661 63.677L47.5942 63.8164L51.1855 60.5844L47.9504 57.002L46.4099 58.3935L46.0412 56.5577L46.8708 55.8103L45.6156 54.4243L45.1314 52.023L45.6325 52.0457L48.076 54.7576L50.7986 52.3152L52.7836 52.4181L52.7716 52.7033L49.175 55.9371L52.4155 59.5177L52.2968 61.7833L48.702 65.0224L51.9424 68.603L51.7903 70.8562Z" fill="#F5C7CB"/>
<path fill-rule="evenodd" clip-rule="evenodd" d="M64.5383 33.8416C62.4937 32.7203 60.2077 32.1067 57.8736 32.0525C55.5392 32.0028 53.2261 32.5146 51.1299 33.5446C49.0337 34.5746 47.2161 36.0926 45.8306 37.9701C44.4451 39.8476 43.5326 42.0296 43.1701 44.3314C42.8467 46.3852 42.9697 48.4806 43.5272 50.4762C43.5347 50.5172 43.5452 50.5588 43.5588 50.6008C43.5775 50.6589 43.5959 50.7166 43.6139 50.7741C43.6287 50.8232 43.6438 50.8721 43.6592 50.921C45.0366 55.4527 44.0257 58.3414 43.32 60.3578C43.2313 60.6114 43.1474 60.8512 43.0736 61.0788C41.7888 65.0697 47.258 65.8137 47.3327 61.6993C47.4656 54.6888 54.445 56.9869 53.2507 63.0398C51.8774 69.9955 59.4447 70.0611 58.2309 63.0834C57.3141 57.8303 65.0443 56.6939 65.3173 62.5982C65.5429 67.3931 71.9331 66.3635 69.5868 60.731C68.7634 58.7459 69.1417 55.7153 70.8937 52.1976C70.9623 52.0605 71.0043 51.9264 71.0212 51.7955L71.0792 51.7967C71.9236 49.6236 72.2319 47.2806 71.9782 44.9655C71.7244 42.6503 70.9159 40.4311 69.621 38.495C68.3261 36.559 66.5829 34.9629 64.5383 33.8416Z" fill="white"/>
</g>
</svg>
