<svg width="80" height="81" viewBox="0 0 80 81" fill="none" xmlns="http://www.w3.org/2000/svg">
<circle cx="40" cy="40.24" r="40" fill="#EEEEEE" fill-opacity="0.933333"/>
<mask id="mask0_173_1183" style="mask-type:alpha" maskUnits="userSpaceOnUse" x="0" y="0" width="80" height="81">
<circle cx="40" cy="40.24" r="40" fill="#D9D9D9"/>
</mask>
<g mask="url(#mask0_173_1183)">
<path d="M56.7793 20.6662C52.9122 18.5142 47.8286 17.3016 42.4462 17.2438H28.9604V19.9078C24.1405 22.1945 21.1241 25.7746 21.0889 29.9476C21.0889 31.8725 21.6796 34.5903 24.4815 37.2273L24.3198 55.5054C24.3057 57.1114 24.744 58.683 25.575 60.0063C26.406 61.3296 27.5894 62.3403 28.9639 62.9006V63.5165H42.3232L52.7434 63.6282C54.6236 63.6213 56.426 62.8053 57.7618 61.3563C59.0976 59.9073 59.8596 57.9414 59.8836 55.8827L60.0453 37.6007C62.8929 35.0253 63.5609 32.3075 63.5609 30.3942C63.6066 26.5792 61.1949 23.1222 56.7793 20.6662Z" fill="#F1959D"/>
<path d="M20.3011 63.4011C18.407 63.3807 16.5979 62.5376 15.2714 61.0569C13.945 59.5763 13.2099 57.5795 13.2277 55.5054L13.3929 37.2235C10.5804 34.5865 9.98278 31.8571 10.0004 29.9438C10.0636 22.7026 19.0741 17.24 30.9604 17.24H31.3576C36.74 17.2977 41.8306 18.5104 45.6907 20.6623C50.1063 23.1184 52.518 26.5754 52.4829 30.3904C52.4829 32.3152 51.8114 35.0099 48.9673 37.5969L48.8196 55.8827C48.7956 57.9414 48.0336 59.9073 46.6978 61.3563C45.3621 62.8053 43.5597 63.6213 41.6794 63.6282L20.3011 63.4011Z" fill="#F5C7CB"/>
<path d="M46.9998 30.8788C47.0405 26.202 40.132 22.3378 31.5829 22.2418C23.0337 22.1458 16.0438 25.8694 16.0001 30.5589C15.9856 32.3855 17.0299 34.0777 18.8159 35.4853L18.6734 51.7997C18.6664 52.9177 19.0626 53.9932 19.7752 54.7906C20.4878 55.588 21.4587 56.0424 22.4752 56.0542L40.0913 56.2398C40.5954 56.2453 41.0955 56.1414 41.5631 55.9342C42.0307 55.7271 42.4566 55.4206 42.8164 55.0323C43.1763 54.644 43.463 54.1815 43.6602 53.6713C43.8574 53.1611 43.9613 52.6132 43.9659 52.0588L44.1113 35.7444C45.9061 34.3976 46.9824 32.7054 46.9998 30.8788Z" fill="white"/>
<path d="M85.2799 58.9237C82.1409 54.1984 69.7917 48.4588 55.0197 48.4588C40.2477 48.4588 27.9033 54.1984 24.7595 58.9237H24V61.1013C24 66.0092 37.8971 66.24 55.0389 66.24C72.1808 66.24 86.0779 66.0092 86.0779 61.1013V58.9237H85.2799Z" fill="#AC101C"/>
<path d="M55.0197 45.24C37.8779 45.24 24 52.9841 24 57.8776C24 62.7712 37.8971 63.0211 55.0389 63.0211C72.1808 63.0211 86.0779 62.7904 86.0779 57.8776C86.0779 52.9649 72.1615 45.24 55.0197 45.24Z" fill="#E21021"/>
<path d="M57.3415 45.2928V52.7918C57.3415 53.4076 57.0969 53.9981 56.6614 54.4335C56.226 54.869 55.6355 55.1136 55.0197 55.1136C54.4039 55.1136 53.8133 54.869 53.3779 54.4335C52.9425 53.9981 52.6979 53.4076 52.6979 52.7918V45.2928C53.467 45.264 54.2409 45.2448 55.0245 45.2448C55.808 45.2448 56.5772 45.2592 57.3415 45.2928Z" fill="#F5C7CB"/>
<path d="M45.9777 45.9611V50.2297C45.992 50.5438 45.9424 50.8576 45.8321 51.152C45.7217 51.4464 45.5528 51.7155 45.3356 51.9428C45.1184 52.1701 44.8573 52.3511 44.5682 52.4747C44.2791 52.5983 43.9679 52.6621 43.6535 52.6621C43.339 52.6621 43.0279 52.5983 42.7387 52.4747C42.4496 52.3511 42.1886 52.1701 41.9713 51.9428C41.7541 51.7155 41.5852 51.4464 41.4749 51.152C41.3645 50.8576 41.315 50.5438 41.3293 50.2297V46.9033C42.8098 46.5331 44.3625 46.2159 45.9777 45.9611Z" fill="#F5C7CB"/>
<path d="M68.7053 46.9033V50.2297C68.7053 50.8455 68.4606 51.4361 68.0252 51.8715C67.5898 52.3069 66.9992 52.5515 66.3835 52.5515C65.7677 52.5515 65.1771 52.3069 64.7417 51.8715C64.3063 51.4361 64.0617 50.8455 64.0617 50.2297V45.9611C65.6768 46.2159 67.2295 46.5283 68.7053 46.9033Z" fill="#F5C7CB"/>
</g>
</svg>
