<svg width="80" height="81" viewBox="0 0 80 81" fill="none" xmlns="http://www.w3.org/2000/svg">
<circle cx="40" cy="40.24" r="40" fill="#EEEEEE" fill-opacity="0.933333"/>
<mask id="mask0_173_1252" style="mask-type:alpha" maskUnits="userSpaceOnUse" x="0" y="0" width="80" height="81">
<circle cx="40" cy="40.24" r="40" fill="#FACCD0"/>
</mask>
<g mask="url(#mask0_173_1252)">
<path d="M89.5068 20.5078H32.2432C31.1818 20.5078 30.3214 21.2154 30.3214 22.0882C30.3214 22.961 31.1818 23.6686 32.2432 23.6686H89.5068C90.5681 23.6686 91.4286 22.961 91.4286 22.0882C91.4286 21.2154 90.5681 20.5078 89.5068 20.5078Z" fill="#A7000D"/>
<path d="M45.6333 18.6348C45.6333 17.3418 44.5876 16.2936 43.2975 16.2936C42.0075 16.2936 40.9617 17.3418 40.9617 18.6348V35.2831C40.9617 36.5761 42.0075 37.6243 43.2975 37.6243C44.5876 37.6243 45.6333 36.5761 45.6333 35.2831V18.6348Z" fill="#F1959D"/>
<path d="M50.305 18.6348C50.305 17.3418 49.2592 16.2936 47.9692 16.2936C46.6791 16.2936 45.6333 17.3418 45.6333 18.6348V35.2831C45.6333 36.5761 46.6791 37.6243 47.9692 37.6243C49.2592 37.6243 50.305 36.5761 50.305 35.2831V18.6348Z" fill="#F5C7CB"/>
<path d="M54.9767 18.6348C54.9767 17.3418 53.9309 16.2936 52.6409 16.2936C51.3508 16.2936 50.305 17.3418 50.305 18.6348V35.2831C50.305 36.5761 51.3508 37.6243 52.6409 37.6243C53.9309 37.6243 54.9767 36.5761 54.9767 35.2831V18.6348Z" fill="#F1959D"/>
<path d="M59.6534 18.6348C59.6534 17.3418 58.6076 16.2936 57.3175 16.2936C56.0275 16.2936 54.9817 17.3418 54.9817 18.6348V35.2831C54.9817 36.5761 56.0275 37.6243 57.3175 37.6243C58.6076 37.6243 59.6534 36.5761 59.6534 35.2831V18.6348Z" fill="#F5C7CB"/>
<path d="M64.2253 18.6348C64.2253 17.3418 63.1795 16.2936 61.8895 16.2936C60.5994 16.2936 59.5536 17.3418 59.5536 18.6348V35.2831C59.5536 36.5761 60.5994 37.6243 61.8895 37.6243C63.1795 37.6243 64.2253 36.5761 64.2253 35.2831V18.6348Z" fill="#F1959D"/>
<path d="M73.5638 34.1793H26.792L29.6788 67.6256H70.672L73.5638 34.1793Z" fill="#F1959D"/>
<path d="M70.313 71.8189L70.677 67.6306H29.6788L30.0428 71.8189C30.1002 72.4797 30.4029 73.0949 30.8912 73.5431C31.3794 73.9913 32.0178 74.24 32.6802 74.24H67.6755C68.338 74.24 68.9763 73.9913 69.4646 73.5431C69.9529 73.0949 70.2556 72.4797 70.313 71.8189Z" fill="#E10012"/>
<path d="M73.9925 30.7948H26.3583C25.0558 30.7948 24 31.8519 24 33.156C24 34.46 25.0558 35.5172 26.3583 35.5172H73.9925C75.2949 35.5172 76.3508 34.46 76.3508 33.156C76.3508 31.8519 75.2949 30.7948 73.9925 30.7948Z" fill="white"/>
<path d="M53.4162 63.1528L28.8312 63.2975L26.8369 40.8686H53.3912C53.8567 40.8686 54.3031 41.0537 54.6322 41.3833C54.9613 41.7128 55.1462 42.1597 55.1462 42.6258V61.3956C55.1476 61.8577 54.9665 62.3017 54.6425 62.6308C54.3184 62.9599 53.8777 63.1475 53.4162 63.1528Z" fill="white"/>
<path d="M89.5068 15.24H32.2432C31.1818 15.24 30.3214 15.9475 30.3214 16.8203C30.3214 17.6932 31.1818 18.4007 32.2432 18.4007H89.5068C90.5681 18.4007 91.4286 17.6932 91.4286 16.8203C91.4286 15.9475 90.5681 15.24 89.5068 15.24Z" fill="#A7000D"/>
<path d="M43 57.24H13V74.24H43V57.24Z" fill="#E10012"/>
<path d="M43 57.24H29.6667V74.24H43V57.24Z" fill="#A7000D"/>
<rect x="13" y="54.24" width="30" height="3" fill="#F5C7CB"/>
<rect x="13" y="74.24" width="30" height="3" fill="#F1959D"/>
<path d="M14.3682 28.7419C14.2979 28.6599 14.2335 28.572 14.1573 28.4958L4.65763 18.9926C4.28908 18.5707 3.77402 18.3047 3.21681 18.2485C2.96449 18.2236 2.7098 18.2536 2.4702 18.3366C2.2306 18.4195 2.01177 18.5533 1.82875 18.7289C0.423122 20.1116 -0.95322 21.5119 -2.34128 22.9063C-2.34128 23.0938 -2.21242 23.1641 -2.11286 23.2637L2.75996 28.1443L8.5582 33.9389C8.65777 34.0443 8.7456 34.1732 8.90959 34.2025C9.07358 34.2318 9.13803 34.0795 9.22588 33.9857L14.1749 29.0348C14.2569 28.9528 14.3682 28.8825 14.3682 28.7419Z" fill="#E10012"/>
<path d="M8.91546 34.1673C8.85103 34.1087 8.78077 34.056 8.71634 33.9916L-2.16555 23.1114L-2.34128 22.9063C-2.73369 23.293 -3.13781 23.6738 -3.51264 24.0781L-6.35903 26.9197C-6.56082 27.101 -6.72221 27.3228 -6.83268 27.5706C-6.94315 27.8184 -7.00019 28.0868 -7.00019 28.3581C-7.00019 28.6295 -6.94315 28.8978 -6.83268 29.1456C-6.72221 29.3934 -6.56082 29.6152 -6.35903 29.7965C-3.12608 33.0424 0.11466 36.2844 3.36323 39.5224L3.49792 39.6397C3.62091 39.6397 3.68537 39.5635 3.7498 39.4932C5.44827 37.8019 7.14475 36.1047 8.83931 34.4017C8.884 34.3614 8.92165 34.3138 8.95063 34.2611C8.95594 34.2438 8.95534 34.2252 8.94899 34.2082C8.94263 34.1913 8.93084 34.1769 8.91546 34.1673Z" fill="#A7000D"/>
<path d="M8.91544 34.1673V34.2201C8.94321 34.3171 9.00312 34.4017 9.08531 34.4603L11.3636 36.7394C11.4326 36.8263 11.5236 36.8931 11.6271 36.9328H11.715C11.8306 36.8534 11.935 36.7587 12.0254 36.6515L14.8367 33.8392C14.9506 33.7551 15.0396 33.6417 15.0944 33.5111L15.6801 32.8842C15.8671 32.7151 16.0185 32.5103 16.1255 32.2819C16.2326 32.0536 16.2931 31.8061 16.3034 31.5541C16.3138 31.3021 16.2738 31.0506 16.1859 30.8142C16.098 30.5778 15.9638 30.3613 15.7913 30.1774C15.3441 29.6724 14.8648 29.1968 14.3564 28.7536L9.14973 33.9623C9.0853 34.0501 8.99744 34.097 8.91544 34.1673Z" fill="#F5C7CB"/>
<path d="M11.6448 36.8976L9.17907 34.4603C9.09707 34.3724 8.99746 34.3021 8.90961 34.2201L7.1116 35.9778L3.48042 39.6045C3.97239 40.0966 4.43502 40.6181 4.95627 41.0751C5.31892 41.3972 5.79109 41.5681 6.27577 41.5529C6.76045 41.5376 7.2209 41.3373 7.56259 40.9931L8.25365 40.3193C8.36548 40.2714 8.46404 40.197 8.5407 40.1025L11.4691 37.173C11.5335 37.1261 11.6682 37.0558 11.6448 36.8976Z" fill="#F5C7CB"/>
<path d="M11.6447 36.8976C10.5905 37.9522 9.5402 39.0108 8.49378 40.0732C8.40767 40.1575 8.32741 40.2475 8.25363 40.3427C9.0853 41.1688 9.92869 41.9891 10.7545 42.8269C10.9302 43.0086 11.0239 43.0027 11.1996 42.8269C12.248 41.7723 13.3081 40.7235 14.3623 39.6748C14.4326 39.5635 14.3623 39.4873 14.2862 39.417C13.4779 38.5968 12.6638 37.7823 11.8439 36.9738C11.8263 36.9495 11.8034 36.9296 11.7771 36.9154C11.7507 36.9012 11.7215 36.8931 11.6916 36.8918L11.6447 36.8976Z" fill="white"/>
<path d="M11.6916 36.8918L14.1632 39.3877C14.2452 39.4756 14.3565 39.54 14.3623 39.6748L17.0623 36.9503C17.238 36.7687 17.4079 36.5813 17.5953 36.4172C17.7827 36.2532 17.7476 36.1828 17.5953 36.0305C16.7988 35.2513 16.014 34.4544 15.2526 33.6869C15.2042 33.6351 15.1592 33.5803 15.1179 33.5228C14.5732 34.0619 14.0226 34.595 13.4838 35.1341C12.945 35.6731 12.2773 36.2941 11.6916 36.8918Z" fill="white"/>
<path d="M23.9851 42.1004C23.9041 41.9248 23.7744 41.7762 23.6114 41.6723C23.4483 41.5684 23.2588 41.5136 23.0655 41.5145C22.8528 41.5154 22.6472 41.591 22.4845 41.728C22.3218 41.8651 22.2123 42.055 22.1753 42.2645C22.1517 42.4716 22.1961 42.6808 22.3017 42.8604C22.4074 43.0401 22.5685 43.1805 22.7609 43.2605C22.9638 43.3379 23.1878 43.339 23.3914 43.2636C23.595 43.1882 23.7643 43.0413 23.8679 42.8504C23.9147 42.7742 23.9498 42.6922 23.9908 42.6102L23.9851 42.1004Z" fill="#F5C7CB"/>
<path d="M17.3903 49.2426C17.648 49.0551 17.9291 48.9027 17.976 48.5453C18.0318 48.3264 18.0023 48.0945 17.8936 47.8965C17.7848 47.6985 17.6049 47.5493 17.3903 47.479C17.1743 47.4013 16.9363 47.4118 16.7281 47.5083C16.5198 47.6048 16.3579 47.7795 16.2775 47.9946C16.1876 48.2085 16.1823 48.4485 16.2628 48.6661C16.3433 48.8837 16.5035 49.0626 16.7109 49.1664C16.7695 49.1664 16.8573 49.1664 16.8924 49.2601L17.3903 49.2426Z" fill="#F5C7CB"/>
<path d="M22.7785 47.1274C22.7741 46.889 22.6778 46.6614 22.5098 46.4922C22.3418 46.3231 22.1149 46.2253 21.8766 46.2193C21.6398 46.2305 21.4156 46.3288 21.2469 46.4953C21.0783 46.6619 20.9771 46.885 20.9629 47.1216C20.9658 47.3601 21.0606 47.5882 21.2275 47.7585C21.3945 47.9288 21.6207 48.0281 21.859 48.0356C21.9799 48.0396 22.1003 48.0189 22.2129 47.9749C22.3255 47.9308 22.4279 47.8642 22.5139 47.7793C22.6 47.6943 22.6678 47.5927 22.7133 47.4806C22.7588 47.3685 22.781 47.2483 22.7785 47.1274Z" fill="#F5C7CB"/>
<path d="M18.1692 40.4599C18.1549 40.5838 18.1669 40.7094 18.2046 40.8283C18.2422 40.9473 18.3045 41.057 18.3874 41.1501C18.4704 41.2433 18.5721 41.3178 18.6859 41.3688C18.7997 41.4199 18.923 41.4463 19.0478 41.4463C19.1725 41.4463 19.2958 41.4199 19.4096 41.3688C19.5234 41.3178 19.6251 41.2433 19.7081 41.1501C19.791 41.057 19.8533 40.9473 19.891 40.8283C19.9286 40.7094 19.9406 40.5838 19.9263 40.4599C19.9406 40.3359 19.9286 40.2104 19.891 40.0915C19.8533 39.9725 19.791 39.8628 19.7081 39.7697C19.6251 39.6765 19.5234 39.602 19.4096 39.551C19.2958 39.4999 19.1725 39.4735 19.0478 39.4735C18.923 39.4735 18.7997 39.4999 18.6859 39.551C18.5721 39.602 18.4704 39.6765 18.3874 39.7697C18.3045 39.8628 18.2422 39.9725 18.2046 40.0915C18.1669 40.2104 18.1549 40.3359 18.1692 40.4599Z" fill="#F5C7CB"/>
<path d="M18.1693 44.321C18.1716 44.4962 18.2259 44.6668 18.3253 44.8111C18.4246 44.9554 18.5646 45.0669 18.7274 45.1315C18.8902 45.1961 19.0686 45.2109 19.2398 45.174C19.411 45.1371 19.5675 45.0502 19.6892 44.9242C19.811 44.7983 19.8926 44.639 19.9238 44.4666C19.955 44.2941 19.9343 44.1164 19.8643 43.9557C19.7944 43.7951 19.6783 43.6589 19.5309 43.5643C19.3834 43.4698 19.2112 43.4211 19.0361 43.4246C18.9183 43.4192 18.8007 43.439 18.6912 43.4826C18.5816 43.5261 18.4826 43.5925 18.4006 43.6772C18.3187 43.762 18.2556 43.8632 18.2157 43.9742C18.1759 44.0852 18.16 44.2034 18.1693 44.321Z" fill="#F5C7CB"/>
<path d="M15.1881 45.1823C15.312 45.1966 15.4375 45.1846 15.5564 45.1469C15.6753 45.1093 15.7849 45.047 15.878 44.964C15.9712 44.881 16.0457 44.7792 16.0967 44.6654C16.1477 44.5515 16.1741 44.4282 16.1741 44.3034C16.1741 44.1787 16.1477 44.0553 16.0967 43.9414C16.0457 43.8276 15.9712 43.7258 15.878 43.6428C15.7849 43.5598 15.6753 43.4975 15.5564 43.4599C15.4375 43.4223 15.312 43.4102 15.1881 43.4246C15.0642 43.4102 14.9387 43.4223 14.8198 43.4599C14.7009 43.4975 14.5913 43.5598 14.4981 43.6428C14.405 43.7258 14.3305 43.8276 14.2795 43.9414C14.2285 44.0553 14.2022 44.1787 14.2022 44.3034C14.2022 44.4282 14.2285 44.5515 14.2795 44.6654C14.3305 44.7792 14.405 44.881 14.4981 44.964C14.5913 45.047 14.7009 45.1093 14.8198 45.1469C14.9387 45.1846 15.0642 45.1966 15.1881 45.1823Z" fill="#F5C7CB"/>
</g>
</svg>
