<svg width="80" height="81" viewBox="0 0 80 81" fill="none" xmlns="http://www.w3.org/2000/svg">
<circle cx="40" cy="40.24" r="40" fill="#EEEEEE" fill-opacity="0.933333"/>
<mask id="mask0_173_1106" style="mask-type:alpha" maskUnits="userSpaceOnUse" x="0" y="0" width="80" height="81">
<circle cx="40" cy="40.24" r="40" fill="#EEEEEE" fill-opacity="0.933333"/>
</mask>
<g mask="url(#mask0_173_1106)">
<rect x="52.8589" y="69.8918" width="5.42944" height="24.4325" fill="#A7000D"/>
<path d="M69 66.8189H42V72.2786H69V66.8189Z" fill="#A7000D"/>
<path d="M42 31.5645V66.8295H68.9999V31.5645C69.0002 30.8325 68.7186 30.129 68.2145 29.6035C67.7105 29.078 67.0238 28.7718 66.3001 28.7497V28.8878H44.679V28.7497C43.9599 28.7798 43.2799 29.0893 42.7809 29.6136C42.2818 30.138 42.0021 30.8368 42 31.5645Z" fill="#E10012"/>
<path d="M44.679 28.8453H66.2686V14.24H44.679V28.8453ZM57.6958 20.4964H62.1292V24.9895H57.6958V20.4964ZM48.8079 20.4964H53.2518V24.9895H48.8814L48.8079 20.4964Z" fill="#F1959D"/>
<path d="M53.2833 20.5389H48.8394V25.032H53.2833V20.5389Z" fill="white"/>
<path d="M62.1712 20.5389H57.7273V25.032H62.1712V20.5389Z" fill="white"/>
<path d="M50.6675 46.9211L61.0031 35.9578L56.2932 44.8328H61.0031L50.1442 56.3182L54.9849 46.9211H50.6675Z" fill="white"/>
<g clip-path="url(#clip0_173_1106)">
<path d="M11.92 18.9436L29.0157 28.8152L8.79479 40.4701V20.7268C8.79209 20.3598 8.88639 19.9986 9.06816 19.6797C9.24992 19.3608 9.51269 19.0956 9.82988 18.911C10.1471 18.7263 10.5074 18.6287 10.8745 18.628C11.2415 18.6273 11.6022 18.7237 11.92 18.9072" fill="white"/>
<path d="M11.688 22.1461L23.2337 28.8152L11.688 35.4842V22.1461Z" fill="#F19BA2"/>
<path d="M41.08 18.9436L23.9798 28.8152L44.2007 40.47V20.7268C44.2043 20.3599 44.1108 19.9986 43.9296 19.6796C43.7484 19.3605 43.486 19.0951 43.169 18.9103C42.8521 18.7255 42.4918 18.6278 42.1249 18.6273C41.758 18.6267 41.3975 18.7233 41.08 18.9072" fill="white"/>
<path d="M41.312 22.1461V35.4842L29.7617 28.8152L41.312 22.1461Z" fill="#F19BA2"/>
<path d="M26.5 66.5366C12.0702 66.5366 6.14719 60.5317 6.14719 45.9108C6.14719 31.2899 12.0611 25.285 26.5 25.285C40.9389 25.285 46.8346 31.2899 46.8346 45.929C46.8346 60.5681 40.9207 66.5366 26.5 66.5366Z" fill="white"/>
<path d="M42.7404 30.8896V49.0861H48.0902C48.232 49.082 48.3709 49.0448 48.4957 48.9774C48.6206 48.9101 48.728 48.8145 48.8093 48.6982C48.8907 48.582 48.9437 48.4483 48.9642 48.3079C48.9846 48.1675 48.972 48.0243 48.9272 47.8897L42.7404 30.8896Z" fill="white"/>
<path d="M42.0944 36.1893V54.3858H47.4397C47.5824 54.3826 47.7224 54.3459 47.8483 54.2786C47.9742 54.2113 48.0825 54.1153 48.1644 53.9984C48.2464 53.8814 48.2996 53.7469 48.3199 53.6056C48.3402 53.4642 48.327 53.3201 48.2812 53.1849L42.0944 36.1893Z" fill="white"/>
<path d="M41.4303 41.489V59.6856H46.78C46.9218 59.6815 47.0607 59.6443 47.1856 59.5769C47.3105 59.5096 47.4179 59.4139 47.4992 59.2977C47.5805 59.1814 47.6335 59.0478 47.654 58.9074C47.6745 58.767 47.6618 58.6238 47.6171 58.4891L41.4303 41.489Z" fill="white"/>
<path d="M10.2414 30.8896V49.0861H4.89163C4.74981 49.082 4.61093 49.0448 4.48607 48.9774C4.3612 48.9101 4.25381 48.8145 4.17248 48.6982C4.09115 48.582 4.03814 48.4483 4.01767 48.3079C3.9972 48.1675 4.00984 48.0243 4.05459 47.8897L10.2414 30.8896Z" fill="white"/>
<path d="M10.8965 36.1893V54.3858H5.55582C5.41308 54.3826 5.2731 54.3459 5.14719 54.2786C5.02128 54.2113 4.91297 54.1153 4.83104 53.9984C4.7491 53.8814 4.69584 53.7469 4.67555 53.6056C4.65525 53.4642 4.6685 53.3201 4.71423 53.1849L10.8965 36.1893Z" fill="white"/>
<path d="M11.5652 41.489V59.6856H6.21542C6.07361 59.6815 5.93473 59.6443 5.80986 59.5769C5.68499 59.5096 5.57761 59.4139 5.49628 59.2977C5.41495 59.1814 5.36192 59.0478 5.34145 58.9074C5.32099 58.767 5.33363 58.6238 5.37838 58.4891L11.5652 41.489Z" fill="white"/>
<path d="M19.1077 40.6111C19.1077 40.0863 18.952 39.5734 18.6604 39.1371C18.3688 38.7009 17.9543 38.361 17.4694 38.1604C16.9845 37.9598 16.451 37.9075 15.9364 38.0102C15.4219 38.1129 14.9493 38.366 14.5786 38.7373C14.2078 39.1087 13.9556 39.5817 13.8538 40.0965C13.752 40.6112 13.8051 41.1446 14.0066 41.6292C14.208 42.1137 14.5486 42.5276 14.9854 42.8185C15.4221 43.1093 15.9353 43.2641 16.4601 43.2632C17.1627 43.262 17.8361 42.9821 18.3325 42.4848C18.8289 41.9876 19.1077 41.3137 19.1077 40.6111Z" fill="#A7000D"/>
<path d="M39.1875 40.6111C39.1875 40.0863 39.0319 39.5734 38.7402 39.1371C38.4486 38.7009 38.0341 38.361 37.5493 38.1604C37.0644 37.9598 36.5309 37.9075 36.0163 38.0102C35.5017 38.1129 35.0292 38.366 34.6584 38.7373C34.2877 39.1087 34.0355 39.5817 33.9336 40.0965C33.8318 40.6112 33.885 41.1446 34.0864 41.6292C34.2879 42.1137 34.6285 42.5276 35.0652 42.8185C35.502 43.1093 36.0152 43.2641 36.5399 43.2632C37.2425 43.262 37.9159 42.9821 38.4123 42.4848C38.9087 41.9876 39.1875 41.3137 39.1875 40.6111Z" fill="#A7000D"/>
<path d="M19.1077 49.8867C19.1077 53.4533 22.4149 56.3465 26.5 56.3465C30.5851 56.3465 33.8878 53.4533 33.8878 49.8867H19.1077Z" fill="#AC101C"/>
<path d="M28.8883 53.9992C28.4413 53.9995 27.999 54.0908 27.5884 54.2676C27.1778 54.4443 26.8075 54.7028 26.5 55.0273C26.1909 54.7039 25.8196 54.4465 25.4083 54.2706C24.9971 54.0947 24.5545 54.0039 24.1072 54.0037C23.4838 54.0028 22.8732 54.1795 22.3467 54.5132V56.9424C22.3282 57.4991 22.4219 58.0539 22.6223 58.5736C22.8226 59.0933 23.1254 59.5674 23.5127 59.9678C23.9 60.3681 24.3638 60.6864 24.8766 60.9038C25.3894 61.1212 25.9407 61.2332 26.4977 61.2332C27.0547 61.2332 27.606 61.1212 28.1189 60.9038C28.6317 60.6864 29.0955 60.3681 29.4828 59.9678C29.8701 59.5674 30.1729 59.0933 30.3732 58.5736C30.5735 58.0539 30.6673 57.4991 30.6488 56.9424V54.5132C30.1226 54.1788 29.5117 54.0021 28.8883 54.0037" fill="#F1959D"/>
<path d="M27.6646 47.9352L29.3159 45.4241C29.4551 45.214 29.5346 44.9701 29.5461 44.7184C29.5575 44.4667 29.5004 44.2166 29.3808 43.9948C29.2613 43.773 29.0838 43.5878 28.8673 43.459C28.6507 43.3301 28.4033 43.2625 28.1513 43.2632H24.8441C24.5922 43.2625 24.3447 43.3301 24.1282 43.459C23.9117 43.5878 23.7342 43.773 23.6146 43.9948C23.4951 44.2166 23.438 44.4667 23.4494 44.7184C23.4609 44.9701 23.5404 45.214 23.6796 45.4241L25.3354 47.9352C25.462 48.1285 25.6348 48.2873 25.8381 48.3972C26.0414 48.5071 26.2689 48.5646 26.5 48.5646C26.7311 48.5646 26.9586 48.5071 27.1619 48.3972C27.3652 48.2873 27.538 48.1285 27.6646 47.9352Z" fill="#AC101C"/>
</g>
</g>
<defs>
<clipPath id="clip0_173_1106">
<rect width="45" height="47.8751" fill="white" transform="translate(4 18.6615)"/>
</clipPath>
</defs>
</svg>
