<svg width="80" height="80" viewBox="0 0 80 80" fill="none" xmlns="http://www.w3.org/2000/svg">
<circle cx="40" cy="40" r="40" fill="#EEEEEE" fill-opacity="0.933333"/>
<mask id="mask0_173_1047" style="mask-type:alpha" maskUnits="userSpaceOnUse" x="0" y="0" width="80" height="80">
<circle cx="40" cy="40" r="40" fill="#FACCD0"/>
</mask>
<g mask="url(#mask0_173_1047)">
<path d="M17 58.761C17.5917 58.1659 22.3201 54 28.2374 54C34.1546 54 37.1078 57.5708 37.1078 57.5708H47.7534C47.7534 57.5708 50.7121 57.5708 50.7121 60.5409C50.7121 63.511 49.2984 64.3982 47.6383 64.3982H50.7121L62.5356 56.3695C62.5356 56.3695 64.9026 54.5841 67.2695 57.5597C69.6364 60.5354 65.4943 62.9104 65.4943 62.9104L55.4404 70.625C55.4404 70.625 53.6652 73 47.7699 73H17V58.761Z" fill="white"/>
<path d="M18.8677 53H10.1323C9.50693 53 9 53.4892 9 54.0926V74.9074C9 75.5108 9.50693 76 10.1323 76H18.8677C19.4931 76 20 75.5108 20 74.9074V54.0926C20 53.4892 19.4931 53 18.8677 53Z" fill="#E10012"/>
<path d="M60.0008 36.9394V37.0929C59.8462 37.6374 59.4964 38.1059 59.0183 38.4088C58.0065 39.2071 57.0065 40.0201 56.0181 40.8476C55.8269 41.0096 55.6943 41.23 55.6409 41.4748C55.3997 42.8565 55.2023 44.2426 54.9786 45.6287C54.8514 46.5059 54.5136 46.8788 53.6934 47.006C52.3073 47.2297 50.9256 47.4446 49.5352 47.6507C49.3824 47.6659 49.2344 47.7128 49.1008 47.7883C48.9671 47.8638 48.8506 47.9664 48.7588 48.0894C47.9561 49.1158 47.1183 50.1115 46.3112 51.1335C46.0306 51.5579 45.6195 51.8797 45.1401 52.0502H44.8287C43.2715 51.4493 41.7144 50.8396 40.1529 50.243C40.043 50.2081 39.925 50.2081 39.8151 50.243C38.2273 50.8396 36.6395 51.4493 35.056 52.0502H34.8981C34.4062 51.9095 33.9802 51.5986 33.6963 51.1729C32.8687 50.1173 32.0221 49.0748 31.1566 48.0455C30.9922 47.8549 30.7707 47.7226 30.525 47.6683C29.1433 47.427 27.7572 47.2297 26.3667 47.0103C25.5158 46.8831 25.1342 46.541 24.9982 45.6945C24.7789 44.3084 24.564 42.9209 24.3534 41.5319C24.3393 41.3854 24.2954 41.2434 24.2245 41.1144C24.1536 40.9854 24.0572 40.8723 23.9412 40.7818C22.8446 39.9046 21.748 39.0273 20.6821 38.15C19.9803 37.5798 19.8619 37.1456 20.1821 36.3122C20.6953 34.9963 21.2128 33.6409 21.7041 32.2987C21.7743 32.097 21.7743 31.8776 21.7041 31.6759C21.2085 30.3205 20.6821 28.9783 20.1689 27.6273C19.9997 27.3265 19.9556 26.9713 20.0458 26.6382C20.1361 26.3051 20.3536 26.0208 20.6514 25.8465C21.7436 24.9692 22.8446 24.0657 23.9368 23.2147C24.0585 23.1275 24.1604 23.0156 24.236 22.8864C24.3115 22.7572 24.3591 22.6135 24.3754 22.4647C24.5859 21.0786 24.8009 19.6925 25.0202 18.3065C25.0332 17.9686 25.1732 17.6481 25.4123 17.409C25.6514 17.1699 25.9719 17.0299 26.3097 17.0169C27.6958 16.7976 29.0834 16.5826 30.4724 16.3721C30.62 16.3539 30.7624 16.3055 30.8906 16.2301C31.0189 16.1547 31.1303 16.0537 31.218 15.9335C32.0953 14.8281 32.9725 13.7403 33.8498 12.6481C34.0248 12.351 34.3094 12.1344 34.6424 12.045C34.9755 11.9556 35.3303 12.0005 35.6306 12.17C36.9816 12.6876 38.3238 13.2096 39.6792 13.7096C39.8812 13.7775 40.0999 13.7775 40.302 13.7096C41.6442 13.2184 42.9776 12.7008 44.3111 12.1876C45.1489 11.8674 45.5831 11.9858 46.1533 12.6876C47.0306 13.771 47.9079 14.8501 48.7851 15.9422C48.8629 16.0514 48.9621 16.1435 49.0767 16.2129C49.1914 16.2823 49.319 16.3275 49.4518 16.3458C50.8422 16.5563 52.2239 16.7844 53.6144 16.9906C54.4609 17.1178 54.847 17.4731 54.9742 18.3065C55.1935 19.6925 55.4128 21.083 55.6189 22.469C55.6379 22.6165 55.6866 22.7586 55.762 22.8868C55.8373 23.0149 55.9379 23.1265 56.0576 23.2147C57.0664 23.9999 58.0401 24.8245 59.0446 25.614C59.5219 25.9179 59.8714 26.386 60.0272 26.9299V27.0878C59.9526 27.294 59.878 27.4957 59.7991 27.7019C59.2903 29.0178 58.7771 30.3644 58.2814 31.7022C58.2096 31.8649 58.1927 32.0466 58.2332 32.2198C58.7946 33.7988 59.3999 35.3691 60.0008 36.9394ZM47.6008 23.2937C47.5775 22.9479 47.4279 22.6227 47.1804 22.38C46.9329 22.1374 46.6048 21.9942 46.2586 21.9778C46.0099 21.9836 45.7669 22.0543 45.5538 22.1827C45.3407 22.3112 45.1649 22.493 45.0436 22.7103C42.2568 26.6229 39.4657 30.534 36.6702 34.4436C35.3865 36.2449 34.0983 38.0462 32.8058 39.8475C32.655 40.0195 32.548 40.2254 32.4938 40.4476C32.4396 40.6698 32.4398 40.9018 32.4944 41.1239C32.5536 41.3533 32.6779 41.5606 32.8522 41.7209C33.0265 41.8812 33.2435 41.9877 33.477 42.0275C33.7348 42.0823 34.0033 42.0555 34.2454 41.951C34.4874 41.8465 34.6909 41.6694 34.8279 41.4441C35.6569 40.2906 36.4772 39.137 37.3062 37.979C40.5725 33.3997 43.8403 28.8204 47.1095 24.2411C47.2949 23.9385 47.459 23.6234 47.6008 23.2981V23.2937ZM47.5131 38.2992C47.5191 37.5523 47.3036 36.8203 46.8936 36.1959C46.4837 35.5716 45.8979 35.0827 45.2101 34.7913C44.5224 34.4999 43.7637 34.4189 43.0299 34.5587C42.2962 34.6985 41.6204 35.0527 41.088 35.5765C40.5555 36.1004 40.1903 36.7703 40.0387 37.5017C39.887 38.2331 39.9556 38.993 40.2358 39.6854C40.516 40.3777 40.9953 40.9715 41.6129 41.3915C42.2305 41.8115 42.9589 42.039 43.7058 42.0451C44.7056 42.0498 45.6668 41.6592 46.3799 40.9584C47.0931 40.2576 47.5004 39.3033 47.5131 38.3036V38.2992ZM40.0038 25.7719C40.0072 25.025 39.7891 24.2938 39.377 23.6708C38.9649 23.0479 38.3773 22.5611 37.6886 22.272C36.9998 21.983 36.2408 21.9047 35.5076 22.047C34.7743 22.1893 34.0998 22.5459 33.5692 23.0716C33.0385 23.5973 32.6757 24.2685 32.5266 25.0004C32.3775 25.7323 32.4487 26.492 32.7314 27.1834C33.014 27.8748 33.4953 28.4669 34.1144 28.8847C34.7336 29.3026 35.4627 29.5275 36.2096 29.531C37.2094 29.5322 38.1692 29.1382 38.8799 28.435C39.5905 27.7317 39.9945 26.7761 40.0038 25.7763V25.7719Z" fill="#E60012"/>
<path d="M47.5131 38.3036C47.5071 39.0503 47.2797 39.7784 46.8599 40.396C46.4401 41.0135 45.8466 41.4928 45.1545 41.7731C44.4624 42.0535 43.7027 42.1223 42.9714 41.971C42.2402 41.8197 41.5702 41.455 41.0461 40.923C40.5221 40.391 40.1675 39.7156 40.0273 38.9821C39.887 38.2487 39.9673 37.4901 40.2581 36.8023C40.5488 36.1145 41.037 35.5283 41.6608 35.1178C42.2846 34.7074 43.0161 34.4911 43.7628 34.4962C44.7645 34.5055 45.7217 34.9114 46.4246 35.6251C47.1275 36.3387 47.519 37.3019 47.5131 38.3036ZM43.7541 37.0491C43.4413 37.059 43.1443 37.1884 42.924 37.4106C42.7037 37.6327 42.5769 37.9309 42.5696 38.2437C42.5623 38.5565 42.675 38.8602 42.8847 39.0924C43.0944 39.3246 43.3851 39.4677 43.697 39.4922C44.0194 39.4938 44.33 39.3712 44.5644 39.1499C44.7988 38.9286 44.939 38.6255 44.9559 38.3036C44.9523 37.9839 44.8284 37.6773 44.6089 37.4449C44.3895 37.2124 44.0905 37.0711 43.7716 37.0491H43.7541Z" fill="white"/>
<path d="M40.0038 25.7763C40.0003 26.5232 39.7754 27.2524 39.3576 27.8715C38.9397 28.4906 38.3476 28.9719 37.6562 29.2545C36.9648 29.5372 36.2052 29.6084 35.4733 29.4593C34.7414 29.3102 34.0701 28.9474 33.5444 28.4167C33.0187 27.8861 32.6621 27.2115 32.5198 26.4783C32.3775 25.745 32.4558 24.986 32.7448 24.2973C33.0339 23.6086 33.5207 23.021 34.1437 22.6089C34.7666 22.1968 35.4978 21.9787 36.2447 21.9822C37.2456 21.9891 38.203 22.3922 38.9075 23.1032C39.6119 23.8143 40.0061 24.7754 40.0038 25.7763ZM36.2096 24.5394C35.968 24.5428 35.7328 24.6178 35.5337 24.7547C35.3346 24.8917 35.1805 25.0845 35.0908 25.3089C35.0011 25.5333 34.9799 25.7793 35.0298 26.0157C35.0797 26.2522 35.1985 26.4685 35.3712 26.6376C35.5439 26.8066 35.7628 26.9207 36.0002 26.9656C36.2377 27.0104 36.4831 26.9839 36.7056 26.8894C36.928 26.795 37.1175 26.6368 37.2501 26.4348C37.3828 26.2328 37.4526 25.996 37.4509 25.7544C37.4397 25.4312 37.3045 25.1247 37.0734 24.8985C36.8423 24.6723 36.533 24.5437 36.2096 24.5394Z" fill="white"/>
<path d="M43.7716 37.0491C44.0936 37.0668 44.3969 37.2063 44.62 37.4392C44.8432 37.6721 44.9695 37.981 44.9734 38.3036C44.9504 38.6151 44.8091 38.906 44.5785 39.1167C44.348 39.3274 44.0455 39.442 43.7332 39.4369C43.4209 39.4319 43.1223 39.3076 42.8987 39.0895C42.675 38.8715 42.5432 38.5762 42.5303 38.2641C42.5447 37.9419 42.6808 37.6373 42.9113 37.4117C43.1417 37.1862 43.4492 37.0565 43.7716 37.0491Z" fill="#E60012"/>
<path d="M36.2096 24.5394C36.4516 24.5351 36.6894 24.6026 36.893 24.7335C37.0966 24.8644 37.2568 25.0526 37.3534 25.2746C37.45 25.4965 37.4786 25.742 37.4357 25.9802C37.3927 26.2184 37.2801 26.4385 37.1121 26.6127C36.944 26.7868 36.7281 26.9073 36.4917 26.9587C36.2552 27.0102 36.0087 26.9904 35.7835 26.9018C35.5583 26.8132 35.3643 26.6599 35.2263 26.4611C35.0882 26.2623 35.0122 26.0271 35.0078 25.7851C35.0119 25.4635 35.1385 25.1555 35.3618 24.924C35.5852 24.6926 35.8884 24.555 36.2096 24.5394Z" fill="#E60012"/>
</g>
</svg>
