<svg width="80" height="81" viewBox="0 0 80 81" fill="none" xmlns="http://www.w3.org/2000/svg">
<circle cx="40" cy="40.24" r="40" fill="#EEEEEE" fill-opacity="0.933333"/>
<mask id="mask0_173_1098" style="mask-type:alpha" maskUnits="userSpaceOnUse" x="0" y="0" width="80" height="81">
<circle cx="40" cy="40.24" r="40" fill="#FACCD0"/>
</mask>
<g mask="url(#mask0_173_1098)">
<path d="M37.5193 27.5157C36.0268 15.3953 17.2785 17.0961 18.0225 29.306C18.0672 30.0266 18.1545 30.744 18.284 31.4544C20.4483 43.4629 27.7528 46.1708 27.9963 48.8831C28.2398 51.5955 29.9081 95.3418 31.7072 99.0657L31.7523 99.1552C31.9887 99.643 32.3696 100.048 32.8439 100.315C33.3182 100.582 33.8634 100.699 34.4065 100.65C34.9497 100.602 35.4649 100.39 35.8834 100.042C36.3018 99.6953 36.6036 99.2296 36.7482 98.7076L36.7753 98.6091C37.8709 94.6257 31.5268 51.3045 31.2788 48.5922C31.0308 45.8799 37.7131 41.9054 37.65 29.7044C37.6482 28.9729 37.6046 28.2422 37.5193 27.5157Z" fill="#E10012"/>
<path d="M62.9179 30.8087C62.7553 30.7867 62.5899 30.7968 62.4312 30.8385C62.2725 30.8802 62.1237 30.9526 61.9934 31.0517C61.8631 31.1507 61.7537 31.2743 61.6717 31.4154C61.5897 31.5565 61.5367 31.7124 61.5156 31.8739L59.0131 50.4798L56.8578 50.1978L59.3918 31.3503C59.4264 31.0874 59.3548 30.8217 59.1926 30.6112C59.0303 30.4006 58.7907 30.2625 58.5261 30.2268C58.2614 30.1925 57.9936 30.2636 57.7816 30.4246C57.5695 30.5857 57.4303 30.8235 57.3944 31.0862L54.8604 49.9292L52.7051 49.6473L55.2346 30.849C55.2527 30.5868 55.1697 30.3277 55.0023 30.1241C54.8348 29.9206 54.5957 29.788 54.3333 29.7532C54.0709 29.7185 53.805 29.7842 53.5897 29.937C53.3743 30.0898 53.2257 30.3183 53.174 30.5759L50.6445 49.3743L48.4892 49.0878L50.9916 30.4775C51.034 30.1518 50.9449 29.8228 50.7439 29.5621C50.5429 29.3013 50.2462 29.13 49.9185 29.0855C49.5903 29.0423 49.2582 29.1302 48.9952 29.33C48.7323 29.5297 48.56 29.8249 48.5162 30.1507L45.8875 49.7144C45.3915 53.4248 47.4882 57.0457 50.8834 58.3213C49.2872 67.3893 42.7989 102.435 43.6285 106.051V106.15C43.7644 106.665 44.0515 107.128 44.4532 107.481C44.855 107.833 45.3533 108.06 45.8848 108.131C46.4164 108.202 46.9572 108.114 47.4386 107.879C47.9199 107.645 48.3202 107.273 48.5884 106.812L48.638 106.718C50.392 103.446 53.3904 67.9353 54.2471 58.7689C56.0103 58.6137 57.6678 57.8675 58.947 56.653C60.2262 55.4386 61.0509 53.8281 61.2856 52.0866L63.9594 32.2007C64.0023 31.8797 63.9176 31.5548 63.7231 31.2949C63.5286 31.035 63.2398 30.8606 62.9179 30.8087Z" fill="#F5C7CB"/>
</g>
</svg>
