<svg xmlns="http://www.w3.org/2000/svg" viewBox="0 0 23.96 23.96"><defs><style>.cls-1{fill:#e40011;}</style></defs><g id="圖層_2" data-name="圖層 2"><g id="圖層_1-2" data-name="圖層 1"><path class="cls-1" d="M12.68,24h-1.4a.58.58,0,0,0-.18,0,11.13,11.13,0,0,1-4.2-1.1A11.82,11.82,0,0,1,.19,14.06C.1,13.61.06,13.14,0,12.68v-1.4a1.77,1.77,0,0,0,0-.2A10.8,10.8,0,0,1,1.14,6.9,11.77,11.77,0,0,1,11.48,0a11,11,0,0,1,6.61,1.67,11.73,11.73,0,0,1,5.85,9.78,11.12,11.12,0,0,1-1.4,6.15A11.79,11.79,0,0,1,14,23.77C13.59,23.86,13.14,23.9,12.68,24ZM12,13.47v0H9.72a4,4,0,0,0-4,3.24,1.92,1.92,0,0,0,.21,1.64,5,5,0,0,0,1,.91,8.68,8.68,0,0,0,6.25,1.5,8.62,8.62,0,0,0,4.51-2,1.66,1.66,0,0,0,.6-1.34,3.93,3.93,0,0,0-3.49-3.89C13.87,13.41,12.93,13.47,12,13.47ZM8,7.55a4,4,0,1,0,4-4A4,4,0,0,0,8,7.55Z"/></g></g></svg>