<svg width="80" height="81" viewBox="0 0 80 81" fill="none" xmlns="http://www.w3.org/2000/svg">
<circle cx="40" cy="40.24" r="40" fill="#EEEEEE" fill-opacity="0.933333"/>
<mask id="mask0_173_1199" style="mask-type:alpha" maskUnits="userSpaceOnUse" x="0" y="0" width="80" height="81">
<circle cx="40" cy="40.24" r="40" fill="#FACCD0"/>
</mask>
<g mask="url(#mask0_173_1199)">
<path d="M23.2564 24.059L41.2745 24.059V16.8507H23.2564V24.059Z" fill="white"/>
<path d="M45.783 90.5845H18.7427C17.7564 90.5859 16.7796 90.3928 15.868 90.0164C14.9564 89.6399 14.128 89.0874 13.4301 88.3905C12.7322 87.6936 12.1785 86.8659 11.8008 85.9549C11.423 85.0438 11.2285 84.0672 11.2285 83.0809L11.2285 40.9592C11.2285 35.4533 13.4158 30.1728 17.3091 26.2796C21.2023 22.3863 26.4828 20.1991 31.9887 20.1991H32.516C38.0219 20.1991 43.3022 22.3863 47.1955 26.2796C51.0888 30.1728 53.276 35.4533 53.276 40.9592L53.276 83.0809C53.276 85.0692 52.4869 86.9762 51.0819 88.3831C49.677 89.7899 47.7712 90.5817 45.783 90.5845Z" fill="white"/>
<path d="M11.2444 90.6798H53.2866V63.803H11.2444V90.6798Z" fill="#F1959D"/>
<path d="M11.2444 64.1976H53.2866V37.3208H11.2444V64.1976Z" fill="#F5C7CB"/>
<path d="M20.534 12.24C20.534 11.1354 21.4295 10.24 22.534 10.24H42.6027C43.155 10.24 43.6027 10.6877 43.6027 11.24V15.831C43.6027 16.3833 43.155 16.831 42.6027 16.831H22.534C21.4295 16.831 20.534 15.9356 20.534 14.831V12.24Z" fill="#E10012"/>
<path d="M33.7161 10.24H42.6027C43.155 10.24 43.6027 10.6877 43.6027 11.24V15.831C43.6027 16.3833 43.155 16.831 42.6027 16.831H33.7161V10.24Z" fill="#A7000D"/>
<path d="M32.7628 49.5542C33.5734 48.3519 33.8866 46.886 33.6337 45.4789C33.3807 44.0718 32.5823 42.8389 31.414 42.0513C30.2457 41.2637 28.8033 40.9859 27.4041 41.2792C26.0049 41.5724 24.7634 42.4126 23.9529 43.6149L21.0697 47.8916L29.8797 53.8309L32.7628 49.5542Z" fill="white"/>
<path d="M21.0697 47.8916L18.1866 52.1682C17.376 53.3705 17.0628 54.8365 17.3157 56.2435C17.5687 57.6506 18.3671 58.8836 19.5354 59.6712C20.7037 60.4588 22.1461 60.7365 23.5453 60.4432C24.9445 60.15 26.186 59.3098 26.9965 58.1075L29.8797 53.8309L21.0697 47.8916Z" fill="#E10012"/>
<path fill-rule="evenodd" clip-rule="evenodd" d="M65 53.2576C67.3993 53.2576 70.6517 55.4988 70.6517 58.2517C70.6517 61.0047 67.3993 63.2517 65 63.2517V68.24C69.7986 68.24 75 63.7694 75 58.24C75 52.7106 69.7986 48.24 65 48.24V53.2576Z" fill="#E10012"/>
<path fill-rule="evenodd" clip-rule="evenodd" d="M38 43.24H65.6362V78.469C65.6343 78.8978 65.463 79.3086 65.1598 79.6118C64.8566 79.9151 64.4458 80.0863 64.017 80.0882H39.4588C39.0719 80.0882 38.7008 79.9345 38.4273 79.661C38.1537 79.3874 38 79.0163 38 78.6295V43.24Z" fill="#E10012"/>
<path fill-rule="evenodd" clip-rule="evenodd" d="M65.6362 72.24V78.469C65.6343 78.8978 65.463 79.3086 65.1598 79.6118C64.8566 79.9151 64.4458 80.0863 64.017 80.0882H39.4588C39.0719 80.0882 38.7008 79.9345 38.4273 79.661C38.1537 79.3874 38 79.0163 38 78.6295V72.24H65.6362Z" fill="#A7000D"/>
<path fill-rule="evenodd" clip-rule="evenodd" d="M56.2688 43.24H56.7312V47.994V49.6277V56.0645H59.0624L61 57.9812V68.24H52V58L53.9567 56.0645H56.2688V49.6277V47.994V43.24Z" fill="white"/>
</g>
</svg>
