<svg width="80" height="80" viewBox="0 0 80 80" fill="none" xmlns="http://www.w3.org/2000/svg">
<circle cx="40" cy="40" r="40" fill="#EEEEEE" fill-opacity="0.933333"/>
<mask id="mask0_173_1062" style="mask-type:alpha" maskUnits="userSpaceOnUse" x="0" y="0" width="80" height="80">
<circle cx="40" cy="40" r="40" fill="#FACCD0"/>
</mask>
<g mask="url(#mask0_173_1062)">
<g clip-path="url(#clip0_173_1062)">
<path d="M24.6913 80.6875C23.9816 80.1615 24.0823 79.3777 23.9869 78.6781C23.738 76.7686 23.5738 74.8433 23.3514 72.9286C23.129 71.0138 22.8747 69.1464 22.6469 67.258C22.6336 66.9969 22.6336 66.7353 22.6469 66.4742C22.7581 66.388 22.8863 66.3261 23.0232 66.2925C23.1601 66.259 23.3026 66.2546 23.4414 66.2795H50.3417C50.5836 66.2621 50.8264 66.2998 51.0514 66.39C51.3109 66.5899 51.2103 66.8687 51.1838 67.1159C50.9825 69.0833 50.7336 71.0506 50.5059 73.0127C50.2464 75.2799 49.9762 77.5418 49.722 79.809C49.7366 80.1308 49.6288 80.4462 49.4201 80.6927L24.6913 80.6875Z" fill="white"/>
<path d="M49.436 80.6875C49.6743 78.5834 49.9127 76.4793 50.1669 74.4067C50.4317 72.1553 50.6965 69.9092 50.9878 67.6577C50.9877 67.259 51.0357 66.8616 51.1308 66.4742C51.2213 66.3958 51.3278 66.3378 51.443 66.3042C51.5582 66.2706 51.6794 66.2622 51.7982 66.2796C53.1435 66.2796 54.4834 66.3111 55.8287 66.3058C55.9259 66.2909 56.0253 66.3004 56.1178 66.3335C56.2104 66.3666 56.2931 66.4222 56.3583 66.4952C56.1147 68.6309 55.8658 70.7719 55.6274 72.9128C55.4103 74.8328 55.2302 76.7633 54.9813 78.6991C54.8913 79.3987 55.0237 80.2141 54.2769 80.7033L49.436 80.6875Z" fill="white"/>
<path d="M56.3689 66.4952H51.1308C50.9666 66.4952 50.8077 66.4952 50.6488 66.4952H23.1077C22.9435 66.4952 22.7847 66.4952 22.6258 66.4952C22.2021 66.4952 21.7783 66.4952 21.3546 66.4584C21.2225 66.4663 21.0902 66.4473 20.9658 66.4024C20.8414 66.3576 20.7276 66.288 20.6313 66.1978C20.535 66.1076 20.4584 65.9988 20.406 65.878C20.3537 65.7573 20.3269 65.6272 20.3271 65.4958C19.8363 61.256 19.3456 57.0179 18.8548 52.7816C18.431 49.1555 18.0038 45.5347 17.573 41.9191C17.4459 40.8671 17.7742 40.4883 18.8017 40.4778C19.0666 40.4778 19.3314 40.4778 19.5857 40.4778C19.692 40.4004 19.8128 40.3447 19.941 40.314C20.0692 40.2833 20.2022 40.2782 20.3324 40.2989C31.536 40.2989 42.7379 40.2989 53.9379 40.2989H54.118C54.8171 40.3305 55.5268 40.1727 56.21 40.4199C56.2987 40.53 56.3595 40.6596 56.3872 40.7978C56.4148 40.9361 56.4086 41.0789 56.3689 41.2142C56.0158 44.3389 55.6521 47.4635 55.2779 50.5881C54.6953 55.5433 54.1392 60.4985 53.5407 65.4537C53.4665 66.0954 53.5407 66.1901 54.2133 66.1954C55.1985 66.1954 56.1889 66.1954 57.1793 66.1954C57.4547 66.1954 57.7513 66.1481 57.9684 66.4006C57.4494 66.5847 56.8986 66.39 56.3689 66.4952Z" fill="#E60012"/>
<path d="M18.6217 32.277C18.7806 32.277 18.9448 32.277 19.1037 32.277H54.5258C54.69 32.277 54.8489 32.277 55.0078 32.277C55.096 32.3884 55.1567 32.5187 55.1852 32.6575C55.2137 32.7963 55.2091 32.9398 55.172 33.0766C54.9019 35.2648 54.6424 37.4584 54.404 39.6467C54.4117 39.9307 54.3261 40.2095 54.1603 40.441C53.9803 40.441 53.8002 40.441 53.6307 40.441H20.1524C19.9723 40.441 19.7922 40.441 19.6227 40.441C19.5062 39.5941 19.3791 38.7524 19.2784 37.9055C19.0666 36.1907 18.8706 34.4758 18.6746 32.7609C18.6164 32.5979 18.627 32.4348 18.6217 32.277Z" fill="white"/>
<path d="M57.9685 66.3742C56.6126 66.3742 55.262 66.3374 53.9114 66.3742C53.3818 66.3742 53.26 66.2112 53.3129 65.7535C53.5001 64.235 53.6766 62.7131 53.8426 61.1876C53.9856 59.9619 54.1233 58.7363 54.2716 57.5054C54.4199 56.2745 54.5682 55.0172 54.7112 53.7706C54.8542 52.5239 54.9813 51.3613 55.119 50.1515C55.3044 48.5734 55.495 47.0321 55.6804 45.4698C55.8181 44.2652 55.9717 43.0606 56.0776 41.8507C56.1763 41.4016 56.2226 40.9427 56.2153 40.483C56.2153 40.4515 56.263 40.3989 56.2895 40.3936C57.3375 40.1585 58.4269 40.1747 59.4673 40.441H60.2512C61.1251 40.441 61.4747 40.7881 61.4005 41.6613C61.2999 42.8765 61.1357 44.0863 60.998 45.3015C60.7332 47.5634 60.4666 49.8271 60.1982 52.0925C59.9299 54.358 59.6633 56.6374 59.3985 58.9309C59.1372 61.1122 58.8794 63.2969 58.6252 65.4852C58.604 65.9429 58.4451 66.2638 57.9685 66.3742Z" fill="#E60012"/>
<path d="M62.9947 25.9488C62.9947 24.9652 62.6875 24.6811 61.7077 24.6496C61.1357 24.6496 60.5478 24.7916 59.9916 24.5338C58.9818 24.4576 57.9681 24.447 56.9568 24.5023C56.8315 24.5057 56.7121 24.5565 56.6232 24.6443C56.4193 24.5131 56.1762 24.4556 55.9347 24.4812C55.1349 24.4812 54.3457 24.4812 53.5354 24.4812C53.2494 24.4812 52.9687 24.4812 52.6827 24.4812H19.8452C19.5639 24.4681 19.2821 24.4946 19.0083 24.5601C18.3834 24.8074 17.7372 24.6285 17.1069 24.6706C16.4767 24.7127 16.0477 24.9915 16.0477 25.6911C16.0477 27.5269 16.0477 29.3733 16.0477 31.2039C16.0477 31.9403 16.4078 32.2559 17.144 32.2559C17.6736 32.2559 18.1504 32.2559 18.6535 32.2559C19.0155 32.4408 19.4288 32.5018 19.8293 32.4295H53.9909C54.3331 32.448 54.6761 32.448 55.0183 32.4295C55.548 32.398 56.1412 32.5768 56.655 32.2559C56.7324 32.3255 56.8241 32.3776 56.9238 32.4084C57.0235 32.4393 57.1287 32.4483 57.2323 32.4348C58.0956 32.4348 58.9589 32.4348 59.8222 32.4348C60.0247 32.4433 60.2243 32.384 60.3889 32.2665H61.7183C62.7246 32.2665 63.0265 31.9561 63.0318 30.9356C63 29.2681 63 27.6058 62.9947 25.9488Z" fill="#F1959D"/>
<path d="M56.5967 32.2349L60.3571 32.277C60.1665 33.9813 59.9546 35.6857 59.7851 37.3953C59.627 38.4021 59.5297 39.4174 59.4938 40.4357L56.2312 40.4778L54.1603 40.4357C54.3086 39.0943 54.4887 37.7582 54.6 36.4168C54.7112 35.0755 55.0078 33.6657 55.0078 32.2717L56.5967 32.2349Z" fill="white"/>
<path d="M56.9992 19.484C56.9197 19.3321 56.7983 19.2059 56.6492 19.1201C56.5 19.0344 56.3293 18.9927 56.1571 19C54.1604 19 52.1637 19 50.1669 19C49.9445 19 49.722 19 49.4996 19H33.6899C30.1572 19 26.6246 19 23.0972 19C22.8774 18.9709 22.6538 19.005 22.4529 19.0982C22.252 19.1915 22.0823 19.3399 21.9637 19.526C20.9786 21.1988 19.9899 22.8716 18.9977 24.5444C19.1566 24.7232 19.3738 24.6601 19.5645 24.6601H53.5618H56.5914C57.4971 24.6601 58.408 24.6601 59.3137 24.6601C59.5414 24.6601 59.801 24.7548 59.997 24.5338C58.9959 22.8505 58.0055 21.162 56.9992 19.484Z" fill="#E10012"/>
<path d="M30.5809 47.0479C29.8069 47.3493 29.1103 47.8184 28.5418 48.4208C27.968 49.0464 27.5332 49.7848 27.2654 50.5881C26.9697 51.4753 26.823 52.4047 26.8311 53.3392C26.8248 54.2637 26.966 55.1834 27.2495 56.064C27.5018 56.8752 27.9262 57.6232 28.4941 58.2576C29.0651 58.8807 29.7715 59.3665 30.5597 59.6779C32.3418 60.3342 34.3017 60.3342 36.0838 59.6779C36.871 59.3674 37.5759 58.8815 38.1441 58.2576C38.7099 57.6288 39.1358 56.8885 39.394 56.0851C39.6786 55.1994 39.8181 54.2741 39.8072 53.3445C39.8339 52.1142 39.5766 50.8942 39.0551 49.778C38.5648 48.7727 37.7778 47.9397 36.7989 47.3898C35.7174 46.8139 34.5035 46.5275 33.2768 46.5587C32.3549 46.5492 31.4398 46.7152 30.5809 47.0479ZM32.0427 57.2529C31.6503 57.0778 31.3027 56.8171 31.0258 56.4901C30.7057 56.104 30.4694 55.6563 30.332 55.1751C30.155 54.5792 30.0694 53.9604 30.0777 53.3392C30.0693 52.7267 30.155 52.1165 30.332 51.5297C30.4685 51.0619 30.6971 50.6256 31.0046 50.2462C31.2761 49.9264 31.6164 49.6711 32.0003 49.4992C32.4817 49.2986 33.0037 49.2131 33.5245 49.2496C34.0452 49.2862 34.55 49.4437 34.9981 49.7096C35.5115 50.0443 35.9119 50.5245 36.1474 51.0878C36.4404 51.802 36.5828 52.5682 36.5658 53.3392C36.5913 54.1519 36.4357 54.9602 36.1103 55.7063C35.8653 56.266 35.4578 56.7404 34.9398 57.0688C34.4473 57.3569 33.8855 57.5077 33.3138 57.5054C32.877 57.5107 32.4439 57.4247 32.0427 57.2529Z" fill="white"/>
<path d="M49.6584 46.8007L48.9964 47.3951L44.5686 51.9768V48.4261C44.6034 47.9255 44.4443 47.4306 44.1238 47.0427C43.9728 46.8833 43.7893 46.7578 43.5857 46.6744C43.382 46.5909 43.1629 46.5515 42.9427 46.5587C42.7196 46.5536 42.4981 46.5982 42.2947 46.6892C42.0912 46.7802 41.9109 46.9154 41.7669 47.0847C41.4619 47.4738 41.3111 47.9604 41.3432 48.4524V57.7579V58.6942L41.5285 59.3728C41.6653 59.626 41.8732 59.8344 42.127 59.9725C42.3666 60.1116 42.6387 60.1859 42.9162 60.1881C43.1355 60.1946 43.3536 60.1548 43.5563 60.0714C43.759 59.988 43.9416 59.8628 44.092 59.7042C44.418 59.3149 44.5794 58.8152 44.5422 58.3102V55.8642L46.2317 54.2545L49.0229 58.5259L49.4307 59.1992C49.5974 59.4807 49.8255 59.7215 50.0981 59.9041C50.4133 60.1049 50.7832 60.2041 51.1574 60.1881C51.5697 60.2048 51.9724 60.0614 52.2802 59.7884C52.4187 59.6675 52.5296 59.5186 52.6055 59.3517C52.6813 59.1847 52.7203 59.0036 52.7198 58.8205C52.7149 58.5027 52.6389 58.1901 52.4973 57.9052L51.9041 56.932L48.4986 52.082L51.3851 49.3624C51.5863 49.1981 51.751 48.994 51.8686 48.763C51.9862 48.5321 52.0542 48.2795 52.0683 48.0211C52.0755 47.8241 52.0394 47.628 51.9626 47.4463C51.8858 47.2647 51.7701 47.1018 51.6234 46.969C51.3186 46.6935 50.9179 46.5463 50.5059 46.5587C50.2049 46.5494 49.9085 46.634 49.6584 46.8007Z" fill="white"/>
</g>
</g>
<defs>
<clipPath id="clip0_173_1062">
<rect width="47" height="61.6875" fill="white" transform="translate(16 19)"/>
</clipPath>
</defs>
</svg>
