<svg width="180" height="23" viewBox="0 0 180 23" fill="none" xmlns="http://www.w3.org/2000/svg">
<g clip-path="url(#clip0_132_1237)">
<path d="M49.4416 8.20389C50.5726 7.16241 52.0655 6.60369 53.6023 6.64676C55.1941 6.67486 56.5463 7.21043 57.5695 8.53285C57.7497 8.36754 57.9216 8.21712 58.0968 8.06504C58.9681 7.31635 60.0375 6.83585 61.1759 6.68156C62.3143 6.52728 63.473 6.70579 64.5122 7.19556C65.9685 7.91131 66.7652 9.11305 66.9355 10.7181C67.0021 11.3425 67.0375 11.9697 67.0413 12.5976C67.0529 14.9846 67.0413 17.3715 67.0413 19.7585C67.0413 20.4197 66.9537 21.071 66.5454 21.6148C65.9238 22.4314 65.0775 22.6777 64.1006 22.4628C63.1236 22.2479 62.5798 21.5817 62.3748 20.6329C62.3089 20.2881 62.2784 19.9375 62.2839 19.5865C62.2707 17.2624 62.2707 14.9383 62.2608 12.6158C62.2548 12.3648 62.2355 12.1143 62.2029 11.8653C62.0574 10.5842 61.2111 10.1875 60.0771 10.6008C59.1366 10.9429 58.6803 11.7083 58.5894 12.6852C58.525 13.358 58.4704 14.0357 58.4621 14.7118C58.439 16.5202 58.4704 18.3286 58.4274 20.137C58.3878 21.79 57.0852 22.805 55.4983 22.4678C54.599 22.276 53.9345 21.5421 53.7792 20.5453C53.7299 20.2231 53.7045 19.8976 53.7031 19.5717C53.6932 17.2723 53.7031 14.973 53.6833 12.6753C53.6812 12.2609 53.6341 11.848 53.5428 11.4438C53.3775 10.7297 53.0138 10.4669 52.2815 10.452C51.0054 10.4338 50.3409 10.8933 50.0913 12.1496C49.9149 13.0864 49.8175 14.0364 49.8003 14.9895C49.7557 16.5962 49.7921 18.2046 49.7838 19.813C49.7853 20.1013 49.7559 20.3889 49.6962 20.6709C49.4202 21.8991 48.4928 22.6033 47.2778 22.5306C46.1207 22.4611 45.2513 21.6148 45.1058 20.4064C45.0692 20.0948 45.0499 19.7813 45.0479 19.4675C45.0479 16.0998 45.0479 12.7332 45.0479 9.36762C45.0468 8.97779 45.0929 8.58926 45.1851 8.21051C45.2798 7.78394 45.51 7.39947 45.8414 7.11462C46.1727 6.82977 46.5873 6.65983 47.0233 6.63023C48.0944 6.55253 48.911 7.01207 49.3144 7.91958C49.3524 8.00223 49.3871 8.08157 49.4416 8.20389Z" fill="#E60012"/>
<path d="M80.3629 20.7437C79.8555 21.0429 79.3348 21.3933 78.7777 21.671C76.9147 22.6 74.9658 22.8678 72.9921 22.1438C70.2564 21.152 69.1175 17.9798 70.5986 15.5962C71.3606 14.3696 72.5326 13.7365 73.9046 13.4291C75.7378 13.0158 77.571 12.6026 79.4075 12.1976C79.7199 12.1282 79.791 12.0058 79.7265 11.6818C79.505 10.5677 79.2306 10.2536 78.1099 10.1561C77.5587 10.1156 77.0048 10.1317 76.4569 10.2041C75.6866 10.2933 75.1262 10.7495 74.6981 11.3777C74.4997 11.6686 74.3096 11.9645 74.1079 12.2521C73.6583 12.8919 72.964 13.1117 72.1094 12.8935C71.311 12.6902 70.7242 12.0852 70.6515 11.3529C70.5275 10.128 71.035 9.14282 71.9045 8.34111C72.8731 7.44848 74.0534 6.98398 75.3477 6.77405C77.1337 6.46986 78.9626 6.52606 80.7266 6.93935C82.7334 7.41707 83.8789 8.70312 84.1979 10.7231C84.2912 11.3437 84.3414 11.9701 84.3484 12.5976C84.3682 13.8919 84.3682 15.1862 84.3384 16.4789C84.3187 17.421 84.455 18.36 84.7418 19.2576C84.8211 19.5089 84.8922 19.7634 84.9484 20.0196C85.1501 20.9734 84.8492 21.6627 84.0062 22.195C83.2243 22.6909 82.3218 22.6909 81.6242 22.0892C81.168 21.6892 80.7878 21.1933 80.3629 20.7437ZM79.7414 15.3515C79.3017 15.459 78.867 15.5681 78.4306 15.6689C77.6255 15.8507 76.8106 15.9995 76.0139 16.2161C75.3857 16.3814 74.7758 16.6425 74.6386 17.3864C74.5725 17.7628 74.658 18.1501 74.8763 18.4637C75.0946 18.7774 75.428 18.9921 75.8039 19.0609C76.2574 19.151 76.7241 19.151 77.1776 19.0609C79.1579 18.6427 79.9001 17.4376 79.7414 15.3515Z" fill="#E60012"/>
<path d="M93.8482 11.8521C93.8482 14.5278 93.8482 17.2035 93.8482 19.8791C93.8482 20.5718 93.7176 21.2379 93.2383 21.7718C92.5771 22.5107 91.7258 22.6975 90.8001 22.4182C89.8744 22.1388 89.4363 21.4412 89.2743 20.537C89.233 20.2896 89.2131 20.0391 89.2148 19.7882C89.2148 14.4732 89.2148 9.15934 89.2148 3.84656C89.2149 3.44558 89.2739 3.04679 89.39 2.663C89.6959 1.66128 90.5025 1.13231 91.6018 1.15545C92.0774 1.15113 92.5409 1.30546 92.919 1.59405C93.2971 1.88264 93.5683 2.28903 93.6895 2.74896C93.7861 3.11198 93.8361 3.4858 93.8383 3.86144C93.8548 6.52444 93.8482 9.1891 93.8482 11.8521Z" fill="#E60012"/>
<path d="M99.1346 11.8273C99.1346 9.20066 99.1346 6.57403 99.1346 3.94904C99.1305 3.58502 99.1682 3.22172 99.247 2.86632C99.5247 1.70921 100.436 1.06949 101.649 1.15545C102.751 1.23479 103.581 2.04642 103.717 3.19527C103.756 3.51948 103.775 3.84567 103.776 4.1722C103.776 9.32299 103.776 14.4743 103.776 19.6262C103.779 20.0024 103.74 20.3777 103.661 20.7453C103.403 21.8826 102.53 22.5521 101.378 22.5322C100.297 22.5124 99.4421 21.7884 99.2288 20.6775C99.1688 20.3571 99.14 20.0316 99.1429 19.7056C99.1313 17.0789 99.1346 14.4523 99.1346 11.8273Z" fill="#E60012"/>
<path d="M111.694 22.9339L109.884 21.8545C110.716 20.6023 111.476 19.3037 112.16 17.965L114.043 18.846C113.262 20.2819 112.479 21.6446 111.694 22.9339ZM110.797 17.1847V1.77203H117.352V17.1847H110.797ZM112.78 4.00194V6.27814H115.372V4.00194H112.78ZM112.78 8.33284V10.6074H115.372V8.32788L112.78 8.33284ZM112.78 12.6869V14.9631H115.372V12.6819L112.78 12.6869ZM116.303 22.6694C115.7 21.4462 115.015 20.1739 114.248 18.8526L115.959 17.9468C116.792 19.2361 117.543 20.4516 118.21 21.5933L116.303 22.6694ZM118.324 4.02178V2.23652H120.918V0.74881H123.168V2.23652H126.398V0.74881H128.672V2.23652H131.168V4.02178H128.672V5.2946H130.704V6.8848H128.672V8.18076H131.78V9.96767H125.933V11.2636H130.704V17.2575H131.78V19.0923H130.704V19.8709C130.704 20.7999 130.492 21.493 130.067 21.9504C129.643 22.4077 128.95 22.654 127.988 22.6893C127.074 22.7036 126.161 22.7113 125.247 22.7124C125.102 22.0281 124.955 21.3432 124.808 20.6577C125.638 20.6742 126.465 20.6825 127.287 20.6825C127.743 20.6825 128.061 20.5844 128.241 20.3883C128.42 20.1921 128.502 19.8417 128.485 19.337V19.0923H121.113V22.8116H118.896V19.0923H117.819V17.2575H118.896V11.2636H123.69V9.96767H118.007V8.18076H120.918V6.8848H118.814V5.2946H120.918V4.02178H118.324ZM121.113 13.0489V14.3944H123.69V13.0489H121.113ZM121.113 15.8871V17.2575H123.69V15.8871H121.113ZM123.168 4.02178V5.2946H126.398V4.02178H123.168ZM123.168 6.8848V8.18076H126.398V6.8848H123.168ZM128.484 13.0489H125.933V14.3944H128.484V13.0489ZM125.933 15.8871V17.2575H128.484V15.8871H125.933Z" fill="#E60012"/>
<path d="M136.111 11.1413C135.539 10.9462 134.96 10.7424 134.374 10.5297C134.925 8.57252 135.31 5.96296 135.531 2.70101L137.39 2.89607L137.114 5.65495H138.437V0.71905H140.906V5.65495H142.546V7.24515C143.873 5.22298 144.873 3.00446 145.51 0.671112L147.956 1.28273C147.615 2.26131 147.248 3.19802 146.855 4.09285H155.593L155.152 18.1831C155.105 19.5695 154.811 20.5811 154.271 21.2181C153.734 21.8385 152.837 22.1889 151.58 22.2694C150.588 22.3025 149.585 22.3267 148.571 22.3421C148.407 21.4131 148.211 20.5244 147.984 19.6758L150.773 19.7254C151.434 19.7254 151.93 19.57 152.216 19.2609C152.502 18.9518 152.672 18.4129 152.712 17.6459C152.892 13.9928 153.038 10.3065 153.152 6.58725H151.881C151.538 10.96 150.828 14.2627 149.752 16.4954C148.708 18.6333 146.979 20.6638 144.566 22.5868C143.948 21.8539 143.285 21.1594 142.582 20.5073C144.987 18.7606 146.734 16.8701 147.824 14.8358C148.914 12.8015 149.656 10.0531 150.051 6.59056H148.656C148.264 9.10314 147.685 11.1336 146.918 12.6819C146.151 14.2302 145.001 15.773 143.468 17.3104C142.801 16.5929 142.165 15.9483 141.561 15.3763L142.539 14.4969L140.905 14.9118V22.8876H138.435V15.5482C137.223 15.9064 136.007 16.2568 134.788 16.5996L134.521 13.6638L138.435 12.7844V8.13447H136.749C136.59 9.14749 136.377 10.1512 136.111 11.1413ZM143.425 10.2602L141.708 8.40061L141.903 8.13282H140.9V12.1926L142.667 11.7711L142.716 14.3151C144.869 12.3083 146.263 9.73128 146.9 6.58394H145.675C145.025 7.86775 144.273 9.09716 143.425 10.2602Z" fill="#E60012"/>
<path d="M160.6 22.0777L158.838 21.8082C159.229 19.9348 159.531 18.0834 159.742 16.2541L161.357 16.4508C161.162 18.3419 160.91 20.2175 160.6 22.0777ZM159.522 9.4569L158.911 7.45014C159.302 7.09199 159.702 6.52115 160.111 5.73762C161.005 4.11076 161.774 2.41813 162.41 0.674438L164.685 1.45301C163.511 3.6405 162.409 5.57342 161.379 7.25178L163.263 7.15425C163.767 6.30681 164.263 5.38498 164.751 4.38876L166.634 5.36734V1.67286H179.992V19.6791C179.992 20.6709 179.796 21.4049 179.405 21.881C179.014 22.3372 178.337 22.5901 177.373 22.6397L174.927 22.6893C174.748 21.9057 174.569 21.1145 174.39 20.3155L176.592 20.3651C177.048 20.3651 177.366 20.2753 177.545 20.0957C177.724 19.9155 177.815 19.5998 177.815 19.1651V3.92426H168.788V22.8347H166.639V5.41693C164.976 8.18959 163.323 10.7336 161.68 13.0489C162.462 13.0015 163.237 12.9464 164.004 12.8836L163.343 11.1215L164.933 10.6074C165.586 12.2395 166.141 13.7156 166.596 15.0358L164.958 15.6474L164.688 14.7664L161.336 15.0358C160.8 15.0995 160.269 15.1978 159.746 15.3301L159.136 13.2985C159.707 12.7449 160.216 12.1295 160.651 11.4637C161.124 10.7793 161.605 10.0129 162.095 9.16432C161.232 9.20848 160.373 9.3062 159.522 9.4569ZM162.19 21.6148C162.141 19.8207 162.059 18.0922 161.944 16.4293L163.267 16.3318C163.445 18.0278 163.624 19.7155 163.804 21.395L162.19 21.6148ZM165.027 20.9057C164.718 19.4874 164.343 17.938 163.901 16.2574L165.199 15.988C165.655 17.522 166.071 19.0389 166.447 20.5387L165.027 20.9057ZM169.48 9.49988V7.51626H170.968C170.609 6.68314 170.25 5.84286 169.892 4.99542L171.775 4.55571C172.182 5.50124 172.59 6.44731 172.998 7.39394L172.606 7.51626H173.512C173.903 6.52445 174.294 5.52934 174.686 4.53092L176.669 4.97062L175.543 7.51626H177.109V9.49988H169.48ZM169.48 13.8308V11.8472H172.489L171.828 10.1842L174.102 9.79246L174.786 11.8472H177.111V13.8308H172.586V16.8161H176.623V18.7997H170.484V13.8407L169.48 13.8308Z" fill="#E60012"/>
<path d="M6.01696 0.762047C4.77239 1.24889 3.65283 2.00863 2.74069 2.98535C1.82196 3.9948 1.12535 5.18585 0.695911 6.48147C0.219594 7.91498 -0.0155722 9.41759 -7.46746e-06 10.9281C-0.0125872 12.4205 0.210562 13.9056 0.661198 15.3284C1.07336 16.6398 1.75712 17.8496 2.66796 18.8791C3.58492 19.8855 4.71885 20.6701 5.9839 21.1735C7.39678 21.7285 8.90441 22.0025 10.4222 21.9801C11.9335 22.0033 13.4351 21.7362 14.8457 21.1933C16.1085 20.6925 17.2395 19.9087 18.1517 18.9022C19.0587 17.8832 19.7432 16.6863 20.1618 15.3879C20.6156 13.9562 20.8388 12.4613 20.823 10.9595C20.823 8.77255 20.4147 6.83522 19.6113 5.20039C18.8278 3.57476 17.565 2.22827 15.9929 1.34225C14.4176 0.45128 12.5216 -0.00164635 10.3446 -0.00164635C8.86662 -0.0241077 7.39793 0.235073 6.01696 0.762047ZM8.36259 17.2542C7.73426 16.9696 7.17783 16.5477 6.73437 16.0194C6.22064 15.3961 5.8398 14.6744 5.61528 13.8985C5.33049 12.9362 5.19229 11.9365 5.20533 10.933C5.19208 9.94269 5.32975 8.9561 5.61363 8.00721C5.83358 7.25215 6.20102 6.54817 6.6947 5.93598C7.1297 5.41765 7.67686 5.00501 8.29482 4.72928C8.94093 4.44908 9.63869 4.30773 10.3429 4.31437C11.3162 4.29674 12.2742 4.55831 13.1034 5.06815C13.9278 5.60714 14.5693 6.38352 14.9432 7.29476C15.3879 8.30805 15.6144 9.53294 15.6144 10.9314C15.6144 12.4472 15.3697 13.7332 14.887 14.7515C14.4176 15.7433 13.7828 16.4839 13.0043 16.9517C12.2158 17.4234 11.3129 17.6693 10.3941 17.6625C9.69574 17.6712 9.00338 17.5321 8.36259 17.2542Z" fill="#E60012"/>
<path d="M36.6225 0.390101L35.5613 1.35711L28.4534 8.76427V3.01839C28.4534 2.04642 28.212 1.29595 27.7359 0.785171C27.4948 0.527184 27.2014 0.323674 26.8753 0.188263C26.5491 0.0528512 26.1978 -0.0113383 25.8449 -1.05738e-05C25.4903 -0.013955 25.137 0.0510264 24.8105 0.190243C24.4841 0.329459 24.1926 0.539436 23.9572 0.805008C23.5059 1.31744 23.2794 2.06295 23.2794 3.02005V18.0526L23.3207 19.5717L23.6117 20.666C23.8348 21.0723 24.1668 21.4083 24.5704 21.6363C24.9575 21.8616 25.397 21.9813 25.8449 21.9834C26.1979 21.9933 26.5489 21.928 26.8747 21.7918C27.2004 21.6556 27.4935 21.4515 27.7343 21.1933C28.217 20.6808 28.4616 19.9238 28.4616 18.9402V14.9945L31.1726 12.3926C31.7792 13.3315 35.6489 19.2923 35.6506 19.2923L36.3118 20.3816C36.5783 20.834 36.9391 21.2236 37.3697 21.5239C37.8733 21.8414 38.4608 21.9998 39.0558 21.9785C39.8013 21.9785 40.4096 21.7619 40.8625 21.3354C41.0843 21.1399 41.2617 20.8992 41.3829 20.6295C41.504 20.3598 41.5662 20.0673 41.5651 19.7717C41.5572 19.2589 41.4358 18.7542 41.2097 18.2939L40.2542 16.7153L34.7993 8.88329L39.4277 4.48627C40.1517 3.79366 40.5187 3.06468 40.5187 2.31751C40.5234 2.0073 40.4623 1.69961 40.3396 1.41469C40.2168 1.12978 40.035 0.8741 39.8063 0.6645C39.3181 0.215592 38.6722 -0.022086 38.0094 0.0032949C37.5182 -0.0151251 37.0334 0.120085 36.6225 0.390101Z" fill="#E60012"/>
</g>
<defs>
<clipPath id="clip0_132_1237">
<rect width="180" height="22.9339" fill="white"/>
</clipPath>
</defs>
</svg>
